<svg width="1920" height="1080" viewBox="0 0 1920 1080" fill="none" xmlns="http://www.w3.org/2000/svg">
<path fill-rule="evenodd" clip-rule="evenodd" d="M322.883 0H344.096L394.802 50.7051L384.195 61.3118L322.883 0ZM267.773 0H288.987L367.247 78.26L356.64 88.8667L267.773 0ZM212.663 0H233.876L339.692 105.815L329.085 116.422L212.663 0ZM96.8484 0H118.062L151.421 33.3594L140.814 43.9661L96.8484 0ZM41.8259 0H63.0393L123.91 60.8706L113.303 71.4773L41.8259 0ZM0 13.1967V0H8.01663L96.3986 88.3818L85.7919 98.9885L0 13.1967ZM0 68.2191V47.0057L68.8873 115.893L58.2806 126.5L0 68.2191ZM0 123.242V102.028L41.3761 143.404L30.7694 154.011L0 123.242ZM0 181.304V160.34L10.4821 170.822L0 181.304ZM0 241.185V219.971L112.768 332.739L102.161 343.346L0 241.185ZM0 296.295V275.081L85.2126 360.294L74.606 370.901L0 296.295ZM0 351.405V330.192L57.6576 387.849L47.0509 398.456L0 351.405ZM0 406.515V385.302L30.1024 415.404L19.4957 426.011L0 406.515ZM0 441.018V439.726L0.64563 440.372L0 441.018ZM0 522.242V501.029L101.75 602.779L91.1436 613.385L0 522.242ZM0 577.265V556.051L74.239 630.29L63.6323 640.897L0 577.265ZM0 632.287V611.074L46.7278 657.802L36.1211 668.408L0 632.287ZM0 687.309V666.096L19.2166 685.313L8.60986 695.919L0 687.309ZM0 750.143V732.265L1.66772 730.597L118.163 847.093L107.557 857.699L0 750.143ZM0 805.253V784.039L90.6082 874.647L80.0015 885.254L0 805.253ZM0 860.363V839.149L63.0531 902.203L52.4464 912.809L0 860.363ZM0 915.473V894.26L35.4979 929.758L24.8912 940.364L0 915.473ZM0 965.256V949.37L7.94299 957.313L0 965.256ZM0 1031.29V1010.07L69.9257 1080H48.7126L0 1031.29ZM14.9033 1080H0V1065.1L14.9033 1080ZM140.801 1080H119.588L237.59 961.998L248.197 972.604L140.801 1080ZM185.74 1080H172.014L178.877 1073.14L185.74 1080ZM240.851 1080H219.637L195.825 1056.19L206.432 1045.58L240.851 1080ZM295.96 1080H274.747L223.38 1028.63L233.987 1018.03L295.96 1080ZM351.071 1080H329.858L250.936 1001.08L261.542 990.471L351.071 1080ZM400.515 1080H390.171L384.737 1074.57L509.788 949.514L520.394 960.121L400.515 1080ZM468.926 1080H447.713L440.644 1072.93L451.251 1062.32L468.926 1080ZM523.949 1080H502.736L468.156 1045.42L478.762 1034.81L523.949 1080ZM578.971 1080H557.758L495.667 1017.91L506.273 1007.3L578.971 1080ZM633.994 1080H612.78L523.178 990.397L533.785 979.791L633.994 1080ZM694.698 1080H691.762L693.23 1078.53L694.698 1080ZM749.808 1080H728.595L710.179 1061.58L720.785 1050.98L749.808 1080ZM804.918 1080H783.705L737.734 1034.03L748.34 1023.42L804.918 1080ZM860.028 1080H838.815L765.289 1006.47L775.896 995.867L860.028 1080ZM915.138 1080H893.925L792.844 978.918L803.451 968.312L915.138 1080ZM977.971 1080H956.759L955.042 1078.28L965.648 1067.68L977.971 1080ZM1032.99 1080H1011.78L982.553 1050.77L993.159 1040.17L1032.99 1080ZM1088.02 1080H1066.8L1010.06 1023.26L1020.67 1012.65L1088.02 1080ZM1143.04 1080H1121.83L1037.58 995.749L1048.18 985.143L1143.04 1080ZM1183.78 1080H1176.85L1065.09 968.238L1075.69 957.631L1190.92 1072.86L1183.78 1080ZM1258.77 1080H1237.55L1224.53 1066.98L1235.14 1056.37L1258.77 1080ZM1313.88 1080H1292.66L1252.09 1039.42L1262.69 1028.82L1313.88 1080ZM1368.99 1080H1347.77L1279.64 1011.87L1290.25 1001.26L1368.99 1080ZM1424.1 1080H1402.88L1307.2 984.314L1317.8 973.708L1424.1 1080ZM1483.73 1080H1475.71L1479.72 1075.99L1483.73 1080ZM1542.04 1080H1520.83L1496.95 1056.12L1507.56 1045.52L1542.04 1080ZM1597.06 1080H1575.85L1524.46 1028.61L1535.07 1018.01L1597.06 1080ZM1652.08 1080H1630.87L1551.97 1001.1L1562.58 990.494L1652.08 1080ZM1703.52 1080H1685.89L1579.48 973.59L1590.09 962.983L1705.32 1078.21L1703.52 1080ZM1756.96 1080H1735.75L1752.08 1063.67L1762.69 1074.28L1756.96 1080ZM1822.83 1080H1801.62L1766.44 1044.82L1777.05 1034.21L1822.83 1080ZM1877.94 1080H1856.73L1794 1017.26L1804.6 1006.66L1877.94 1080ZM1920 1066.95V1080H1911.84L1821.55 989.709L1832.16 979.103L1920 1066.95ZM1920 1011.84V1033.05L1849.11 962.155L1859.71 951.548L1920 1011.84ZM1920 956.726V977.938L1876.66 934.599L1887.27 923.993L1920 956.726ZM1920 895.751V916.964L1919.67 917.295L1909.06 906.688L1920 895.751ZM1920 838.87V860.083L1806.5 746.578L1817.1 735.972L1920 838.87ZM1920 783.848V805.061L1834.01 719.067L1844.61 708.46L1920 783.848ZM1920 728.825V750.038L1861.52 691.556L1872.12 680.949L1920 728.825ZM1920 673.803V695.016L1889.03 664.044L1899.64 653.438L1920 673.803ZM1920 635.714V638.833L1918.44 637.274L1920 635.714ZM1920 557.988V579.201L1816.16 475.356L1826.76 464.75L1920 557.988ZM1920 502.878V524.091L1843.71 447.801L1854.32 437.194L1920 502.878ZM1920 447.768V468.981L1871.27 420.246L1881.87 409.64L1920 447.768ZM1920 392.658V413.871L1898.82 392.691L1909.43 382.084L1920 392.658ZM1920 329.825V343.776L1916.37 347.407L1801.14 232.181L1811.75 221.575L1920 329.825ZM1920 274.802V296.015L1828.65 204.67L1839.26 194.063L1920 274.802ZM1920 219.78V240.993L1856.17 177.159L1866.77 166.552L1920 219.78ZM1920 164.757V185.97L1883.68 149.647L1894.28 139.041L1920 164.757ZM1920 113.324V130.948L1911.19 122.136L1920 113.324ZM1920 49.0298V70.2429L1849.76 0H1870.97L1920 49.0298ZM1904.87 0H1920V15.133L1904.87 0ZM1776.25 0H1797.47L1681.95 115.512L1671.35 104.906L1776.25 0ZM1623.98 0H1645.2L1694.61 49.4146L1684.01 60.0212L1623.98 0ZM1568.96 0H1590.18L1667.1 76.9257L1656.49 87.5323L1568.96 0ZM1516.22 0H1531.86L1534.65 2.78296L1409.3 128.131L1398.69 117.525L1516.22 0ZM1395.91 0H1417.12L1451.06 33.941L1440.46 44.5477L1395.91 0ZM1340.8 0H1362.01L1423.51 61.4962L1412.9 72.1029L1340.8 0ZM1285.69 0H1306.9L1395.95 89.0513L1385.35 99.658L1285.69 0ZM1114.94 0H1136.15L1180.22 44.0627L1169.61 54.6694L1114.94 0ZM1059.92 0H1081.13L1152.7 71.574L1142.1 82.1807L1059.92 0ZM1004.89 0H1026.11L1125.19 99.0852L1114.59 109.692L1004.89 0ZM831.841 0H853.054L909.155 56.1005L898.548 66.7072L831.841 0ZM776.731 0H797.944L881.6 83.6555L870.993 94.2622L776.731 0ZM732.265 0H742.834L854.045 111.211L843.438 121.817L726.943 5.32202L732.265 0ZM605.894 0H627.107L665.818 38.7111L655.212 49.3177L605.894 0ZM550.871 0H572.085L638.307 66.2223L627.7 76.829L550.871 0ZM495.849 0H517.062L610.796 93.7335L600.189 104.34L495.849 0ZM441.018 0L439.662 1.35522L438.307 0H441.018ZM660.916 0H682.13L693.329 11.1997L682.723 21.8064L660.916 0ZM886.951 0H908.164L936.71 28.5457L926.103 39.1523L886.951 0ZM942.061 0H963.274L964.265 0.990479L953.658 11.5972L942.061 0ZM1169.96 0H1191.18L1207.73 16.5515L1197.12 27.1582L1169.96 0ZM1451.02 0H1472.23L1478.62 6.38623L1468.01 16.9929L1451.02 0ZM1679.01 0H1700.22L1722.12 21.9033L1711.52 32.51L1679.01 0ZM1734.03 0H1744.03L1739.03 4.99878L1734.03 0ZM160.09 0H181.304L167.167 14.1361L156.561 3.52942L160.09 0ZM377.993 0H399.207L422.357 23.15L411.75 33.7567L377.993 0ZM1140.05 137.672L1265.1 12.6205L1254.49 2.01379L1129.44 127.065L1140.05 137.672ZM1707.3 140.862L1832.36 15.8104L1821.75 5.20374L1696.7 130.255L1707.3 140.862ZM457.452 16.6257L572.678 131.851L583.284 121.245L468.059 6.01904L457.452 16.6257ZM867.39 150.291L992.739 24.9426L982.132 14.3359L856.784 139.684L867.39 150.291ZM185.034 27.4816L301.53 143.977L312.136 133.37L195.641 16.8749L185.034 27.4816ZM1434.69 153.521L1560.04 28.1729L1549.43 17.5662L1424.08 142.915L1434.69 153.521ZM598.138 159.831L723.189 34.7799L712.583 24.1732L587.531 149.224L598.138 159.831ZM1165.4 163.021L1290.45 37.9701L1279.84 27.3634L1154.79 152.414L1165.4 163.021ZM1732.65 166.212L1857.71 41.1603L1847.1 30.5536L1722.05 155.605L1732.65 166.212ZM325.482 172.45L450.83 47.1021L440.224 36.4954L314.875 161.844L325.482 172.45ZM892.78 175.681L1018.13 50.3325L1007.52 39.7258L882.174 165.074L892.78 175.681ZM1460.08 178.911L1585.43 53.563L1574.82 42.9563L1449.47 168.305L1460.08 178.911ZM56.2296 181.991L181.281 56.9395L170.674 46.3328L45.6229 171.384L56.2296 181.991ZM623.488 185.181L748.539 60.1296L737.932 49.5229L612.881 174.574L623.488 185.181ZM1190.75 188.371L1315.8 63.3198L1305.19 52.7131L1180.14 177.764L1190.75 188.371ZM1758 191.561L1883.06 66.5098L1872.45 55.9031L1747.4 180.954L1758 191.561ZM350.872 197.84L476.22 72.4919L465.614 61.8853L340.265 187.234L350.872 197.84ZM918.17 201.071L1043.52 75.7225L1032.91 65.1158L907.564 190.464L918.17 201.071ZM1485.47 204.302L1610.82 78.953L1600.21 68.3463L1474.86 193.695L1485.47 204.302ZM81.5792 207.34L206.63 82.2892L196.024 71.6825L70.9725 196.734L81.5792 207.34ZM648.838 210.53L773.889 85.4792L763.282 74.8726L638.231 199.924L648.838 210.53ZM1216.1 213.72L1341.15 88.6694L1330.54 78.0627L1205.49 203.114L1216.1 213.72ZM1783.35 216.911L1908.4 91.8595L1897.8 81.2528L1772.75 206.304L1783.35 216.911ZM376.262 223.231L501.61 97.882L491.004 87.2753L365.655 212.624L376.262 223.231ZM943.56 226.461L1068.91 101.113L1058.3 90.506L932.954 215.854L943.56 226.461ZM1510.86 229.692L1636.21 104.343L1625.6 93.7365L1500.25 219.085L1510.86 229.692ZM106.929 232.69L231.98 107.639L221.374 97.0321L96.3223 222.083L106.929 232.69ZM674.187 235.88L799.238 110.829L788.632 100.222L663.58 225.273L674.187 235.88ZM1241.45 239.07L1366.5 114.019L1355.89 103.412L1230.84 228.464L1241.45 239.07ZM401.652 248.621L527 123.272L516.394 112.665L391.045 238.014L401.652 248.621ZM968.95 251.851L1094.3 126.503L1083.69 115.896L958.344 241.244L968.95 251.851ZM1638.95 132.817L1755.44 249.312L1766.05 238.705L1649.55 122.21L1638.95 132.817ZM132.279 258.04L257.33 132.989L246.723 122.382L121.672 247.433L132.279 258.04ZM699.537 261.23L824.588 136.179L813.981 125.572L688.93 250.623L699.537 261.23ZM1369.28 144.296L1484.51 259.522L1495.11 248.915L1379.89 133.689L1369.28 144.296ZM427.042 274.01L552.391 148.662L541.784 138.056L416.435 263.404L427.042 274.01ZM1097.04 154.976L1213.53 271.472L1224.14 260.865L1107.64 144.37L1097.04 154.976ZM157.628 283.389L282.68 158.338L272.073 147.731L147.022 272.783L157.628 283.389ZM1611.39 160.372L1727.89 276.867L1738.49 266.26L1622 149.765L1611.39 160.372ZM827.371 166.455L942.597 281.681L953.204 271.074L837.978 155.849L827.371 166.455ZM1341.77 171.807L1456.99 287.033L1467.6 276.426L1352.38 161.2L1341.77 171.807ZM555.129 177.136L671.625 293.631L682.231 283.024L565.736 166.529L555.129 177.136ZM1069.48 182.531L1185.98 299.027L1196.58 288.42L1080.09 171.925L1069.48 182.531ZM1583.84 187.927L1700.33 304.422L1710.94 293.816L1594.44 177.32L1583.84 187.927ZM285.463 188.615L400.689 303.841L411.295 293.234L296.07 178.008L285.463 188.615ZM799.86 193.966L915.086 309.192L925.692 298.586L810.467 183.36L799.86 193.966ZM13.2206 199.295L129.716 315.791L140.323 305.184L23.8273 188.689L13.2206 199.295ZM1314.26 199.318L1429.48 314.544L1440.09 303.937L1324.86 188.712L1314.26 199.318ZM527.574 204.691L644.069 321.186L654.676 310.579L538.181 194.084L527.574 204.691ZM1041.93 210.086L1158.42 326.582L1169.03 315.975L1052.53 199.479L1041.93 210.086ZM1556.28 215.482L1672.78 331.977L1683.38 321.371L1566.89 204.875L1556.28 215.482ZM257.952 216.126L373.177 331.352L383.784 320.745L268.559 205.519L257.952 216.126ZM772.349 221.478L887.575 336.704L898.181 326.097L782.955 210.871L772.349 221.478ZM1286.75 226.829L1401.97 342.055L1412.58 331.449L1297.35 216.223L1286.75 226.829ZM500.019 232.246L616.514 348.741L627.121 338.135L510.626 221.639L500.019 232.246ZM1014.37 237.641L1130.87 354.137L1141.47 343.53L1024.98 227.035L1014.37 237.641ZM1528.73 243.037L1645.22 359.532L1655.83 348.926L1539.33 232.43L1528.73 243.037ZM230.441 243.637L345.666 358.863L356.273 348.256L241.047 233.031L230.441 243.637ZM744.838 248.989L860.063 364.215L870.67 353.608L755.444 238.382L744.838 248.989ZM1259.23 254.341L1374.46 369.567L1385.07 358.96L1269.84 243.734L1259.23 254.341ZM472.464 259.801L588.959 376.296L599.566 365.69L483.07 249.194L472.464 259.801ZM1669.17 388.006L1794.52 262.657L1783.92 252.051L1658.57 377.399L1669.17 388.006ZM986.817 265.196L1103.31 381.692L1113.92 371.085L997.424 254.59L986.817 265.196ZM202.929 271.148L318.155 386.374L328.762 375.768L213.536 260.542L202.929 271.148ZM1399.92 397.546L1524.97 272.495L1514.37 261.888L1389.31 386.939L1399.92 397.546ZM717.326 276.5L832.552 391.726L843.159 381.119L727.933 265.893L717.326 276.5ZM1127.26 410.165L1252.61 284.817L1242.01 274.21L1116.66 399.559L1127.26 410.165ZM444.909 287.356L561.404 403.851L572.011 393.245L455.515 276.749L444.909 287.356ZM1694.56 413.396L1819.91 288.047L1809.3 277.441L1683.96 402.789L1694.56 413.396ZM858.013 419.705L983.063 294.654L972.457 284.048L847.406 409.099L858.013 419.705ZM1425.27 422.896L1550.32 297.844L1539.72 287.238L1414.66 412.289L1425.27 422.896ZM175.418 298.66L290.644 413.886L301.25 403.279L186.025 288.053L175.418 298.66ZM585.356 432.325L710.705 306.976L700.098 296.37L574.749 421.718L585.356 432.325ZM1152.65 435.555L1278 310.207L1267.4 299.6L1142.05 424.949L1152.65 435.555ZM1719.95 438.786L1845.3 313.438L1834.69 302.831L1709.35 428.179L1719.95 438.786ZM316.104 441.865L441.155 316.814L430.548 306.207L305.497 431.258L316.104 441.865ZM883.362 445.055L1008.41 320.004L997.807 309.397L872.756 434.448L883.362 445.055ZM1450.62 448.245L1575.67 323.194L1565.06 312.588L1440.01 437.639L1450.62 448.245ZM43.4479 454.484L168.796 329.136L158.19 318.529L32.8412 443.878L43.4479 454.484ZM610.746 457.715L736.095 332.366L725.488 321.76L600.14 447.108L610.746 457.715ZM1178.04 460.945L1303.39 335.597L1292.79 324.99L1167.44 450.339L1178.04 460.945ZM1745.34 464.176L1870.69 338.827L1860.08 328.221L1734.74 453.569L1745.34 464.176ZM341.454 467.215L466.505 342.163L455.898 331.557L330.847 456.608L341.454 467.215ZM908.712 470.405L1033.76 345.354L1023.16 334.747L898.105 459.798L908.712 470.405ZM1475.97 473.595L1601.02 348.544L1590.41 337.937L1465.36 462.988L1475.97 473.595ZM68.8378 479.875L194.186 354.526L183.58 343.919L58.2311 469.268L68.8378 479.875ZM636.136 483.105L761.485 357.757L750.878 347.15L625.53 472.498L636.136 483.105ZM1203.43 486.335L1328.78 360.987L1318.18 350.38L1192.83 475.729L1203.43 486.335ZM1770.73 489.566L1896.08 364.218L1885.48 353.611L1760.13 478.959L1770.73 489.566ZM366.803 492.564L491.854 367.513L481.248 356.906L356.197 481.958L366.803 492.564ZM934.062 495.754L1059.11 370.703L1048.51 360.097L923.455 485.148L934.062 495.754ZM1501.32 498.944L1626.37 373.893L1615.76 363.287L1490.71 488.338L1501.32 498.944ZM94.2279 505.264L219.576 379.916L208.97 369.309L83.6212 494.658L94.2279 505.264ZM661.526 508.495L786.875 383.146L776.268 372.54L650.92 497.888L661.526 508.495ZM1228.82 511.725L1354.17 386.377L1343.57 375.77L1218.22 501.119L1228.82 511.725ZM392.153 517.914L517.204 392.863L506.598 382.256L381.546 507.307L392.153 517.914ZM959.411 521.104L1084.46 396.053L1073.86 385.446L948.805 510.498L959.411 521.104ZM1629.15 404.17L1744.38 519.396L1754.99 508.789L1639.76 393.563L1629.15 404.17ZM119.618 530.654L244.966 405.306L234.36 394.699L109.011 520.048L119.618 530.654ZM686.916 533.885L812.265 408.536L801.658 397.93L676.31 523.279L686.916 533.885ZM1356.91 414.851L1473.41 531.346L1484.01 520.74L1367.52 404.244L1356.91 414.851ZM417.503 543.263L542.554 418.213L531.947 407.606L406.896 532.657L417.503 543.263ZM1087.25 426.33L1202.47 541.555L1213.08 530.949L1097.85 415.723L1087.25 426.33ZM145.008 556.044L270.357 430.696L259.75 420.089L134.401 545.438L145.008 556.044ZM1601.64 431.681L1716.87 546.907L1727.48 536.301L1612.25 421.075L1601.64 431.681ZM815.003 437.01L931.499 553.506L942.105 542.899L825.61 426.403L815.003 437.01ZM1329.36 442.406L1445.85 558.901L1456.46 548.295L1339.96 431.799L1329.36 442.406ZM545.337 448.489L660.563 563.715L671.17 553.108L555.944 437.882L545.337 448.489ZM1059.73 453.841L1174.96 569.067L1185.57 558.46L1070.34 443.234L1059.73 453.841ZM273.095 459.169L389.59 575.665L400.197 565.059L283.702 448.563L273.095 459.169ZM1574.13 459.192L1689.36 574.418L1699.96 563.812L1584.74 448.586L1574.13 459.192ZM787.448 464.565L903.944 581.061L914.55 570.454L798.055 453.958L787.448 464.565ZM1301.8 469.96L1418.3 586.456L1428.9 575.85L1312.41 459.354L1301.8 469.96ZM3.42896 470.648L118.655 585.874L129.261 575.268L14.0356 460.042L3.42896 470.648ZM517.826 476L633.052 591.226L643.659 580.62L528.433 465.394L517.826 476ZM1032.22 481.352L1147.45 596.578L1158.06 585.971L1042.83 470.746L1032.22 481.352ZM1546.62 486.704L1661.85 601.929L1672.45 591.323L1557.23 476.097L1546.62 486.704ZM245.54 486.725L362.035 603.22L372.642 592.614L256.147 476.118L245.54 486.725ZM759.893 492.12L876.389 608.615L886.996 598.009L770.5 481.514L759.893 492.12ZM1274.25 497.516L1390.74 614.011L1401.35 603.405L1284.85 486.909L1274.25 497.516ZM1788.6 502.911L1905.1 619.406L1915.7 608.8L1799.21 492.305L1788.6 502.911ZM490.315 503.511L605.541 618.737L616.147 608.131L500.922 492.905L490.315 503.511ZM1004.71 508.863L1119.94 624.089L1130.54 613.482L1015.32 498.257L1004.71 508.863ZM1519.11 514.215L1634.34 629.441L1644.94 618.834L1529.72 503.608L1519.11 514.215ZM217.985 514.28L334.48 630.775L345.087 620.168L228.592 503.673L217.985 514.28ZM732.338 519.675L848.834 636.171L859.44 625.564L742.945 509.069L732.338 519.675ZM1246.69 525.071L1363.19 641.566L1373.79 630.96L1257.3 514.464L1246.69 525.071ZM462.804 531.023L578.03 646.249L588.636 635.642L473.41 520.416L462.804 531.023ZM1659.8 657.42L1784.85 532.369L1774.24 521.763L1649.19 646.814L1659.8 657.42ZM977.201 536.375L1092.43 651.6L1103.03 640.994L987.807 525.768L977.201 536.375ZM190.43 541.835L306.925 658.33L317.532 647.724L201.036 531.228L190.43 541.835ZM1387.14 670.04L1512.49 544.691L1501.88 534.085L1376.53 659.433L1387.14 670.04ZM704.783 547.23L821.279 663.726L831.885 653.119L715.39 536.624L704.783 547.23ZM1117.89 679.58L1242.94 554.529L1232.33 543.922L1107.28 668.973L1117.89 679.58ZM1685.14 682.77L1810.2 557.719L1799.59 547.112L1674.54 672.164L1685.14 682.77ZM435.292 558.534L550.518 673.76L561.125 663.153L445.899 547.927L435.292 558.534ZM845.231 692.199L970.579 566.851L959.973 556.244L834.624 681.593L845.231 692.199ZM162.875 569.39L279.37 685.885L289.977 675.279L173.482 558.783L162.875 569.39ZM1412.53 695.43L1537.88 570.081L1527.27 559.475L1401.92 684.823L1412.53 695.43ZM575.979 701.739L701.03 576.688L690.423 566.082L565.372 691.133L575.979 701.739ZM1143.24 704.929L1268.29 579.878L1257.68 569.272L1132.63 694.323L1143.24 704.929ZM1710.49 708.12L1835.55 583.069L1824.94 572.462L1699.89 697.513L1710.49 708.12ZM303.322 714.359L428.671 589.01L418.064 578.404L292.716 703.752L303.322 714.359ZM870.621 717.589L995.969 592.241L985.363 581.634L860.014 706.983L870.621 717.589ZM1437.92 720.82L1563.27 595.471L1552.66 584.865L1427.31 710.213L1437.92 720.82ZM34.0702 723.899L159.121 598.848L148.515 588.241L23.4635 713.292L34.0702 723.899ZM601.328 727.089L726.379 602.038L715.773 591.431L590.722 716.483L601.328 727.089ZM1168.59 730.279L1293.64 605.228L1283.03 594.622L1157.98 719.673L1168.59 730.279ZM1735.84 733.469L1860.9 608.418L1850.29 597.812L1725.24 722.863L1735.84 733.469ZM328.712 739.749L454.061 614.4L443.454 603.794L318.106 729.142L328.712 739.749ZM896.01 742.979L1021.36 617.631L1010.75 607.024L885.404 732.373L896.01 742.979ZM1463.31 746.21L1588.66 620.861L1578.05 610.255L1452.7 735.603L1463.31 746.21ZM59.4198 749.249L184.471 624.198L173.864 613.591L48.8131 738.642L59.4198 749.249ZM626.678 752.439L751.729 627.388L741.122 616.781L616.071 741.832L626.678 752.439ZM1193.94 755.629L1318.99 630.578L1308.38 619.971L1183.33 745.022L1193.94 755.629ZM1761.19 758.819L1886.24 633.768L1875.64 623.162L1750.59 748.212L1761.19 758.819ZM354.102 765.139L479.451 639.79L468.844 629.184L343.495 754.532L354.102 765.139ZM921.401 768.369L1046.75 643.021L1036.14 632.414L910.794 757.763L921.401 768.369ZM1488.7 771.6L1614.05 646.251L1603.44 635.645L1478.09 760.993L1488.7 771.6ZM84.7695 774.598L209.821 649.547L199.214 638.941L74.1628 763.992L84.7695 774.598ZM652.028 777.788L777.079 652.737L766.472 642.131L641.421 767.182L652.028 777.788ZM1219.29 780.979L1344.34 655.927L1333.73 645.321L1208.68 770.372L1219.29 780.979ZM379.492 790.529L504.841 665.18L494.234 654.574L368.886 779.923L379.492 790.529ZM946.791 793.759L1072.14 668.411L1061.53 657.804L936.184 783.153L946.791 793.759ZM1616.79 674.725L1733.28 791.22L1743.89 780.614L1627.39 664.119L1616.79 674.725ZM110.119 799.948L235.17 674.897L224.564 664.29L99.5125 789.341L110.119 799.948ZM677.377 803.138L802.428 678.087L791.822 667.48L666.771 792.531L677.377 803.138ZM1347.12 686.204L1462.35 801.43L1472.95 790.823L1357.73 675.597L1347.12 686.204ZM404.882 815.919L530.231 690.571L519.624 679.964L394.276 805.312L404.882 815.919ZM1074.88 696.885L1191.37 813.38L1201.98 802.773L1085.48 686.278L1074.88 696.885ZM135.469 825.298L260.52 700.247L249.913 689.64L124.862 814.691L135.469 825.298ZM1589.23 702.28L1705.73 818.775L1716.33 808.169L1599.84 691.674L1589.23 702.28ZM805.212 708.363L920.438 823.589L931.044 812.983L815.819 697.757L805.212 708.363ZM1319.61 713.715L1434.83 828.941L1445.44 818.335L1330.22 703.109L1319.61 713.715ZM532.969 719.044L649.465 835.54L660.072 824.933L543.576 708.438L532.969 719.044ZM1047.32 724.439L1163.82 840.935L1174.42 830.329L1057.93 713.833L1047.32 724.439ZM1561.68 729.835L1678.17 846.33L1688.78 835.724L1572.28 719.229L1561.68 729.835ZM263.303 730.523L378.529 845.749L389.136 835.142L273.91 719.917L263.303 730.523ZM777.701 735.875L892.927 851.101L903.533 840.494L788.307 725.268L777.701 735.875ZM1292.1 741.227L1407.32 856.452L1417.93 845.846L1302.7 730.62L1292.1 741.227ZM505.414 746.599L621.91 863.094L632.517 852.488L516.021 735.993L505.414 746.599ZM1019.77 751.994L1136.26 868.49L1146.87 857.884L1030.37 741.388L1019.77 751.994ZM1534.12 757.39L1650.62 873.885L1661.22 863.279L1544.73 746.784L1534.12 757.39ZM235.792 758.034L351.018 873.26L361.625 862.654L246.399 747.428L235.792 758.034ZM750.189 763.386L865.415 878.612L876.022 868.005L760.796 752.78L750.189 763.386ZM1264.59 768.738L1379.81 883.964L1390.42 873.357L1275.19 758.131L1264.59 768.738ZM1778.98 774.09L1894.21 889.315L1904.82 878.709L1789.59 763.483L1778.98 774.09ZM477.859 774.154L594.355 890.65L604.962 880.043L488.466 763.548L477.859 774.154ZM992.213 779.55L1108.71 896.045L1119.31 885.439L1002.82 768.943L992.213 779.55ZM1506.57 784.945L1623.06 901.44L1633.67 890.834L1517.17 774.339L1506.57 784.945ZM208.281 785.546L323.507 900.771L334.113 890.165L218.888 774.939L208.281 785.546ZM722.678 790.897L837.904 906.123L848.511 895.517L733.285 780.291L722.678 790.897ZM1237.08 796.249L1352.3 911.475L1362.91 900.868L1247.68 785.643L1237.08 796.249ZM450.304 801.709L566.8 918.205L577.406 907.598L460.911 791.103L450.304 801.709ZM1647.01 929.914L1772.36 804.566L1761.76 793.959L1636.41 919.308L1647.01 929.914ZM964.658 807.105L1081.15 923.6L1091.76 912.994L975.264 796.498L964.658 807.105ZM180.77 813.057L295.996 928.282L306.602 917.676L191.376 802.45L180.77 813.057ZM1377.76 939.454L1502.81 814.403L1492.21 803.797L1367.15 928.848L1377.76 939.454ZM695.167 818.408L810.393 933.634L820.999 923.028L705.774 807.802L695.167 818.408ZM1105.1 952.074L1230.45 826.725L1219.85 816.119L1094.5 941.467L1105.1 952.074ZM422.749 829.264L539.245 945.76L549.852 935.153L433.356 818.658L422.749 829.264ZM1672.4 955.304L1797.75 829.956L1787.15 819.349L1661.8 944.698L1672.4 955.304ZM835.853 961.614L960.904 836.563L950.298 825.956L825.246 951.007L835.853 961.614ZM1403.11 964.804L1528.16 839.753L1517.56 829.146L1392.5 954.197L1403.11 964.804ZM153.259 840.568L268.484 955.794L279.091 945.188L163.865 829.962L153.259 840.568ZM563.197 974.233L688.545 848.885L677.938 838.278L552.59 963.627L563.197 974.233ZM1130.5 977.464L1255.84 852.115L1245.24 841.509L1119.89 966.857L1130.5 977.464ZM1697.79 980.694L1823.14 855.346L1812.54 844.739L1687.19 970.088L1697.79 980.694ZM293.945 983.773L418.996 858.722L408.389 848.116L283.338 973.167L293.945 983.773ZM861.203 986.963L986.254 861.912L975.647 851.306L850.596 976.357L861.203 986.963ZM1428.46 990.154L1553.51 865.102L1542.91 854.496L1417.85 979.547L1428.46 990.154ZM21.2882 996.393L146.637 871.044L136.03 860.438L10.6815 985.786L21.2882 996.393ZM588.587 999.623L713.935 874.275L703.328 863.668L577.98 989.017L588.587 999.623ZM1155.89 1002.85L1281.23 877.505L1270.63 866.899L1145.28 992.247L1155.89 1002.85ZM1723.18 1006.08L1848.53 880.736L1837.93 870.129L1712.58 995.478L1723.18 1006.08ZM319.294 1009.12L444.345 884.072L433.739 873.465L308.688 998.516L319.294 1009.12ZM886.552 1012.31L1011.6 887.262L1001 876.656L875.946 1001.71L886.552 1012.31ZM1453.81 1015.5L1578.86 890.452L1568.25 879.845L1443.2 1004.9L1453.81 1015.5ZM46.6783 1021.78L172.027 896.434L161.42 885.828L36.0717 1011.18L46.6783 1021.78ZM613.977 1025.01L739.325 899.665L728.719 889.058L603.37 1014.41L613.977 1025.01ZM1181.28 1028.24L1306.62 902.895L1296.02 892.289L1170.67 1017.64L1181.28 1028.24ZM1748.57 1031.47L1873.92 906.126L1863.32 895.519L1737.97 1020.87L1748.57 1031.47ZM344.644 1034.47L469.695 909.421L459.088 898.815L334.037 1023.87L344.644 1034.47ZM911.902 1037.66L1036.95 912.612L1026.35 902.005L901.295 1027.06L911.902 1037.66ZM1479.16 1040.85L1604.21 915.802L1593.6 905.195L1468.55 1030.25L1479.16 1040.85ZM72.0684 1047.17L197.417 921.824L186.81 911.218L61.4617 1036.57L72.0684 1047.17ZM639.367 1050.4L764.715 925.055L754.109 914.448L628.76 1039.8L639.367 1050.4ZM1206.67 1053.63L1332.01 928.285L1321.41 917.679L1196.06 1043.03L1206.67 1053.63ZM369.994 1059.82L495.045 934.771L484.438 924.165L359.387 1049.22L369.994 1059.82ZM937.251 1063.01L1062.3 937.961L1051.7 927.355L926.645 1052.41L937.251 1063.01ZM1606.99 946.078L1722.22 1061.3L1732.83 1050.7L1617.6 935.472L1606.99 946.078ZM97.4583 1072.56L222.807 947.214L212.2 936.608L86.8516 1061.96L97.4583 1072.56ZM664.757 1075.79L790.105 950.445L779.499 939.838L654.15 1065.19L664.757 1075.79ZM1334.75 956.759L1451.25 1073.25L1461.85 1062.65L1345.36 946.152L1334.75 956.759Z" fill="#CE401D"/>
</svg>
