<svg width="2075" height="2075" viewBox="0 0 2075 2075" fill="none" xmlns="http://www.w3.org/2000/svg">
<path d="M2.15384 1965.54H117.879M2.15383 2041.92H117.879M2.15384 1991H117.879M2.15383 2067.38H117.879M2.15383 2016.46H117.879M131.154 1834.96H247.154M131.154 1911.46L247.154 1911.46M131.154 1860.46L247.154 1860.46M131.154 1936.96H247.154M131.154 1885.96H247.154M110.065 1828.31L110.065 1944.03M33.6868 1828.31L33.6868 1944.03M84.6057 1828.31V1944.03M8.2273 1828.31L8.2273 1944.03M59.1462 1828.31L59.1462 1944.03M240.154 1957.96L240.154 2074.96M163.654 1957.96L163.654 2074.96M214.654 1957.96L214.654 2074.96M138.154 1957.96L138.154 2074.96M189.154 1957.96L189.154 2074.96M2.15387 1704.54H117.879M2.15387 1780.92H117.879M2.15387 1730H117.879M2.15387 1806.38H117.879M2.15387 1755.46H117.879M131.154 1573.96L247.154 1573.96M131.154 1650.46L247.154 1650.46M131.154 1599.46L247.154 1599.46M131.154 1675.96H247.154M131.154 1624.96H247.154M110.065 1567.31L110.065 1683.03M33.6868 1567.31V1683.03M84.6058 1567.31L84.6057 1683.03M8.22734 1567.31V1683.03M59.1463 1567.31L59.1463 1683.03M240.154 1696.96L240.154 1813.96M163.654 1696.96L163.654 1813.96M214.654 1696.96L214.654 1813.96M138.154 1696.96L138.154 1813.96M189.154 1696.96L189.154 1813.96M2.15383 1443.54H117.879M2.15383 1519.92H117.879M2.15383 1469H117.879M2.15383 1545.38H117.879M2.15383 1494.46H117.879M131.154 1312.96H247.154M131.154 1389.46H247.154M131.154 1338.46L247.154 1338.46M131.154 1414.96H247.154M131.154 1363.96L247.154 1363.96M110.065 1306.31L110.065 1422.03M33.6868 1306.31V1422.03M84.6057 1306.31L84.6057 1422.03M8.22734 1306.31V1422.03M59.1463 1306.31L59.1462 1422.03M240.154 1435.96L240.154 1552.96M163.654 1435.96L163.654 1552.96M214.654 1435.96L214.654 1552.96M138.154 1435.96L138.154 1552.96M189.154 1435.96L189.154 1552.96M2.15383 1182.54H117.879M2.15383 1258.92L117.879 1258.92M2.15383 1208H117.879M2.15383 1284.38L117.879 1284.38M2.15383 1233.46H117.879M131.154 1051.96H247.154M131.154 1128.46H247.154M131.154 1077.46H247.154M131.154 1153.96H247.154M131.154 1102.96H247.154M110.065 1045.31V1161.03M33.6868 1045.31V1161.03M84.6057 1045.31V1161.03M8.22734 1045.31V1161.03M59.1463 1045.31V1161.03M240.154 1174.96V1291.96M163.654 1174.96V1291.96M214.654 1174.96L214.654 1291.96M138.154 1174.96L138.154 1291.96M189.154 1174.96L189.154 1291.96M2.15383 921.544L117.879 921.544M2.15383 997.922L117.879 997.922M2.15383 947.003L117.879 947.003M2.15383 1023.38L117.879 1023.38M2.15383 972.463L117.879 972.463M131.154 790.962L247.154 790.962M131.154 867.462H247.154M131.154 816.462H247.154M131.154 892.962H247.154M131.154 841.962H247.154M110.065 784.31V900.035M33.6868 784.31V900.035M84.6057 784.31V900.035M8.22734 784.31V900.035M59.1463 784.31V900.035M240.154 913.962L240.154 1030.96M163.654 913.962V1030.96M214.654 913.962V1030.96M138.154 913.962L138.154 1030.96M189.154 913.962V1030.96M2.15385 660.544L117.879 660.544M2.15387 736.922H117.879M2.15385 686.003L117.879 686.003M2.15387 762.382H117.879M2.15385 711.463L117.879 711.463M131.154 529.962H247.154M131.154 606.462L247.154 606.462M131.154 555.462L247.154 555.462M131.154 631.962H247.154M131.154 580.962L247.154 580.962M110.065 523.31V639.035M33.6868 523.31V639.035M84.6057 523.31V639.035M8.22734 523.31V639.035M59.1463 523.31V639.035M240.154 652.962L240.154 769.962M163.654 652.962L163.654 769.962M214.654 652.962L214.654 769.962M138.154 652.962L138.154 769.962M189.154 652.962L189.154 769.962M2.15385 399.544H117.879M2.15385 475.922L117.879 475.922M2.15385 425.003H117.879M2.15385 501.382L117.879 501.382M2.15385 450.463H117.879M131.154 268.962H247.154M131.154 345.462L247.154 345.462M131.154 294.462L247.154 294.462M131.154 370.962L247.154 370.962M131.154 319.962H247.154M110.065 262.31L110.065 378.035M33.6868 262.31V378.035M84.6057 262.31V378.035M8.22729 262.31V378.035M59.1462 262.31V378.035M240.154 391.962L240.154 508.962M163.654 391.962L163.654 508.962M214.654 391.962L214.654 508.962M138.154 391.962L138.154 508.962M189.154 391.962L189.154 508.962M2.15381 138.544H117.879M2.15382 214.922H117.879M2.15381 164.003H117.879M2.15382 240.382H117.879M2.15381 189.463L117.879 189.463M131.154 7.96243L247.154 7.9624M131.154 84.4624L247.154 84.4624M131.154 33.4624L247.154 33.4624M131.154 109.962L247.154 109.962M131.154 58.9624L247.154 58.9624M110.065 1.30978L110.065 117.035M33.6868 1.30978L33.6868 117.035M84.6058 1.30978V117.035M8.22734 1.30978L8.22734 117.035M59.1463 1.30978L59.1463 117.035M240.154 130.962L240.154 247.962M163.654 130.962L163.654 247.962M214.654 130.962L214.654 247.962M138.154 130.962L138.154 247.962M189.154 130.962L189.154 247.962M263.154 1965.54H378.879M263.154 2041.92H378.879M263.154 1991H378.879M263.154 2067.38H378.879M263.154 2016.46H378.879M392.154 1834.96L508.154 1834.96M392.154 1911.46L508.154 1911.46M392.154 1860.46L508.154 1860.46M392.154 1936.96H508.154M392.154 1885.96H508.154M371.065 1828.31V1944.03M294.687 1828.31V1944.03M345.606 1828.31L345.606 1944.03M269.227 1828.31V1944.03M320.146 1828.31L320.146 1944.03M501.154 1957.96L501.154 2074.96M424.654 1957.96L424.654 2074.96M475.654 1957.96L475.654 2074.96M399.154 1957.96L399.154 2074.96M450.154 1957.96L450.154 2074.96M263.154 1704.54H378.879M263.154 1780.92H378.879M263.154 1730H378.879M263.154 1806.38H378.879M263.154 1755.46H378.879M392.154 1573.96H508.154M392.154 1650.46H508.154M392.154 1599.46L508.154 1599.46M392.154 1675.96L508.154 1675.96M392.154 1624.96L508.154 1624.96M371.065 1567.31V1683.03M294.687 1567.31V1683.03M345.606 1567.31V1683.03M269.227 1567.31V1683.03M320.146 1567.31V1683.03M501.154 1696.96L501.154 1813.96M424.654 1696.96L424.654 1813.96M475.654 1696.96L475.654 1813.96M399.154 1696.96L399.154 1813.96M450.154 1696.96L450.154 1813.96M263.154 1443.54H378.879M263.154 1519.92H378.879M263.154 1469H378.879M263.154 1545.38H378.879M263.154 1494.46H378.879M392.154 1312.96L508.154 1312.96M392.154 1389.46L508.154 1389.46M392.154 1338.46H508.154M392.154 1414.96L508.154 1414.96M392.154 1363.96H508.154M371.065 1306.31V1422.03M294.687 1306.31V1422.03M345.606 1306.31V1422.03M269.227 1306.31V1422.03M320.146 1306.31V1422.03M501.154 1435.96V1552.96M424.654 1435.96L424.654 1552.96M475.654 1435.96L475.654 1552.96M399.154 1435.96L399.154 1552.96M450.154 1435.96L450.154 1552.96M263.154 1182.54H378.879M263.154 1258.92H378.879M263.154 1208H378.879M263.154 1284.38H378.879M263.154 1233.46H378.879M392.154 1051.96H508.154M392.154 1128.46H508.154M392.154 1077.46L508.154 1077.46M392.154 1153.96H508.154M392.154 1102.96L508.154 1102.96M371.065 1045.31L371.065 1161.03M294.687 1045.31V1161.03M345.606 1045.31L345.606 1161.03M269.227 1045.31V1161.03M320.146 1045.31L320.146 1161.03M501.154 1174.96L501.154 1291.96M424.654 1174.96L424.654 1291.96M475.654 1174.96L475.654 1291.96M399.154 1174.96L399.154 1291.96M450.154 1174.96L450.154 1291.96M263.154 921.544L378.879 921.544M263.154 997.922L378.879 997.922M263.154 947.003L378.879 947.003M263.154 1023.38L378.879 1023.38M263.154 972.463L378.879 972.463M392.154 790.962H508.154M392.154 867.462H508.154M392.154 816.462L508.154 816.462M392.154 892.962H508.154M392.154 841.962L508.154 841.962M371.065 784.31V900.035M294.687 784.31V900.035M345.606 784.31V900.035M269.227 784.31V900.035M320.146 784.31V900.035M501.154 913.962L501.154 1030.96M424.654 913.962L424.654 1030.96M475.654 913.962L475.654 1030.96M399.154 913.962L399.154 1030.96M450.154 913.962L450.154 1030.96M263.154 660.544L378.879 660.544M263.154 736.922L378.879 736.922M263.154 686.003L378.879 686.003M263.154 762.382L378.879 762.382M263.154 711.463L378.879 711.463M392.154 529.962L508.154 529.962M392.154 606.462H508.154M392.154 555.462H508.154M392.154 631.962L508.154 631.962M392.154 580.962L508.154 580.962M371.065 523.31L371.065 639.035M294.687 523.31V639.035M345.606 523.31V639.035M269.227 523.31V639.035M320.146 523.31V639.035M501.154 652.962L501.154 769.962M424.654 652.962L424.654 769.962M475.654 652.962L475.654 769.962M399.154 652.962V769.962M450.154 652.962L450.154 769.962M263.154 399.544H378.879M263.154 475.922H378.879M263.154 425.003H378.879M263.154 501.382H378.879M263.154 450.463H378.879M392.154 268.962L508.154 268.962M392.154 345.462L508.154 345.462M392.154 294.462L508.154 294.462M392.154 370.962H508.154M392.154 319.962L508.154 319.962M371.065 262.31V378.035M294.687 262.31V378.035M345.606 262.31V378.035M269.227 262.31V378.035M320.146 262.31V378.035M501.154 391.962L501.154 508.962M424.654 391.962L424.654 508.962M475.654 391.962L475.654 508.962M399.154 391.962V508.962M450.154 391.962L450.154 508.962M263.154 138.544H378.879M263.154 214.922L378.879 214.922M263.154 164.003H378.879M263.154 240.382L378.879 240.382M263.154 189.463H378.879M392.154 7.96238L508.154 7.96245M392.154 84.4624L508.154 84.4624M392.154 33.4624L508.154 33.4624M392.154 109.962L508.154 109.962M392.154 58.9624L508.154 58.9624M371.065 1.30982V117.035M294.687 1.30982V117.035M345.606 1.30982V117.035M269.227 1.30982V117.035M320.146 1.30982V117.035M501.154 130.962L501.154 247.962M424.654 130.962L424.654 247.962M475.654 130.962L475.654 247.962M399.154 130.962L399.154 247.962M450.154 130.962L450.154 247.962M524.154 1965.54H639.879M524.154 2041.92H639.879M524.154 1991H639.879M524.154 2067.38H639.879M524.154 2016.46H639.879M653.154 1834.96H769.154M653.154 1911.46H769.154M653.154 1860.46H769.154M653.154 1936.96L769.154 1936.96M653.154 1885.96L769.154 1885.96M632.065 1828.31V1944.03M555.687 1828.31V1944.03M606.606 1828.31V1944.03M530.227 1828.31V1944.03M581.146 1828.31V1944.03M762.154 1957.96L762.154 2074.96M685.654 1957.96V2074.96M736.654 1957.96V2074.96M660.154 1957.96L660.154 2074.96M711.154 1957.96V2074.96M524.154 1704.54H639.879M524.154 1780.92H639.879M524.154 1730H639.879M524.154 1806.38H639.879M524.154 1755.46H639.879M653.154 1573.96L769.154 1573.96M653.154 1650.46L769.154 1650.46M653.154 1599.46H769.154M653.154 1675.96H769.154M653.154 1624.96H769.154M632.065 1567.31V1683.03M555.687 1567.31V1683.03M606.606 1567.31V1683.03M530.227 1567.31V1683.03M581.146 1567.31V1683.03M762.154 1696.96V1813.96M685.654 1696.96V1813.96M736.654 1696.96V1813.96M660.154 1696.96V1813.96M711.154 1696.96L711.154 1813.96M524.154 1443.54H639.879M524.154 1519.92H639.879M524.154 1469H639.879M524.154 1545.38H639.879M524.154 1494.46H639.879M653.154 1312.96H769.154M653.154 1389.46H769.154M653.154 1338.46L769.154 1338.46M653.154 1414.96H769.154M653.154 1363.96L769.154 1363.96M632.065 1306.31V1422.03M555.687 1306.31V1422.03M606.606 1306.31V1422.03M530.227 1306.31V1422.03M581.146 1306.31V1422.03M762.154 1435.96L762.154 1552.96M685.654 1435.96V1552.96M736.654 1435.96L736.654 1552.96M660.154 1435.96V1552.96M711.154 1435.96V1552.96M524.154 1182.54H639.879M524.154 1258.92H639.879M524.154 1208H639.879M524.154 1284.38H639.879M524.154 1233.46H639.879M653.154 1051.96H769.154M653.154 1128.46L769.154 1128.46M653.154 1077.46L769.154 1077.46M653.154 1153.96H769.154M653.154 1102.96H769.154M632.065 1045.31V1161.03M555.687 1045.31V1161.03M606.606 1045.31V1161.03M530.227 1045.31V1161.03M581.146 1045.31V1161.03M762.154 1174.96L762.154 1291.96M685.654 1174.96V1291.96M736.654 1174.96L736.654 1291.96M660.154 1174.96L660.154 1291.96M711.154 1174.96L711.154 1291.96M524.154 921.544H639.879M524.154 997.922H639.879M524.154 947.003H639.879M524.154 1023.38H639.879M524.154 972.463H639.879M653.154 790.962H769.154M653.154 867.462H769.154M653.154 816.462L769.154 816.462M653.154 892.962L769.154 892.962M653.154 841.962H769.154M632.065 784.31L632.065 900.035M555.687 784.31V900.035M606.606 784.31L606.606 900.035M530.227 784.31V900.035M581.146 784.31L581.146 900.035M762.154 913.962L762.154 1030.96M685.654 913.962L685.654 1030.96M736.654 913.962V1030.96M660.154 913.962L660.154 1030.96M711.154 913.962L711.154 1030.96M524.154 660.544L639.879 660.544M524.154 736.922H639.879M524.154 686.003L639.879 686.003M524.154 762.382H639.879M524.154 711.463L639.879 711.463M653.154 529.962H769.154M653.154 606.462H769.154M653.154 555.462H769.154M653.154 631.962H769.154M653.154 580.962L769.154 580.962M632.065 523.31V639.035M555.687 523.31V639.035M606.606 523.31V639.035M530.227 523.31V639.035M581.146 523.31V639.035M762.154 652.962L762.154 769.962M685.654 652.962V769.962M736.654 652.962L736.654 769.962M660.154 652.962V769.962M711.154 652.962L711.154 769.962M524.154 399.544L639.879 399.544M524.154 475.922L639.879 475.922M524.154 425.003L639.879 425.003M524.154 501.382L639.879 501.382M524.154 450.463L639.879 450.463M653.154 268.962L769.154 268.962M653.154 345.462H769.154M653.154 294.462H769.154M653.154 370.962L769.154 370.962M653.154 319.962L769.154 319.962M632.065 262.31V378.035M555.687 262.31V378.035M606.606 262.31V378.035M530.227 262.31V378.035M581.146 262.31V378.035M762.154 391.962L762.154 508.962M685.654 391.962V508.962M736.654 391.962V508.962M660.154 391.962V508.962M711.154 391.962L711.154 508.962M524.154 138.544L639.879 138.544M524.154 214.922H639.879M524.154 164.003L639.879 164.003M524.154 240.382H639.879M524.154 189.463L639.879 189.463M653.154 7.96243L769.154 7.96238M653.154 84.4624L769.154 84.4624M653.154 33.4624L769.154 33.4624M653.154 109.962H769.154M653.154 58.9624L769.154 58.9625M632.065 1.30978V117.035M555.687 1.30978V117.035M606.606 1.30978V117.035M530.227 1.30978V117.035M581.146 1.30978V117.035M762.154 130.962L762.154 247.962M685.654 130.962V247.962M736.654 130.962V247.962M660.154 130.962V247.962M711.154 130.962L711.154 247.962M785.154 1965.54L900.879 1965.54M785.154 2041.92H900.879M785.154 1991L900.879 1991M785.154 2067.38H900.879M785.154 2016.46H900.879M914.154 1834.96L1030.15 1834.96M914.154 1911.46L1030.15 1911.46M914.154 1860.46H1030.15M914.154 1936.96H1030.15M914.154 1885.96L1030.15 1885.96M893.065 1828.31V1944.03M816.687 1828.31V1944.03M867.606 1828.31V1944.03M791.227 1828.31V1944.03M842.146 1828.31V1944.03M1023.15 1957.96L1023.15 2074.96M946.654 1957.96V2074.96M997.654 1957.96L997.654 2074.96M921.154 1957.96V2074.96M972.154 1957.96V2074.96M785.154 1704.54H900.879M785.154 1780.92H900.879M785.154 1730H900.879M785.154 1806.38H900.879M785.154 1755.46H900.879M914.154 1573.96H1030.15M914.154 1650.46H1030.15M914.154 1599.46H1030.15M914.154 1675.96H1030.15M914.154 1624.96L1030.15 1624.96M893.065 1567.31V1683.03M816.687 1567.31V1683.03M867.606 1567.31V1683.03M791.227 1567.31V1683.03M842.146 1567.31V1683.03M1023.15 1696.96L1023.15 1813.96M946.654 1696.96V1813.96M997.654 1696.96L997.654 1813.96M921.154 1696.96V1813.96M972.154 1696.96V1813.96M785.154 1443.54H900.879M785.154 1519.92H900.879M785.154 1469H900.879M785.154 1545.38H900.879M785.154 1494.46H900.879M914.154 1312.96H1030.15M914.154 1389.46L1030.15 1389.46M914.154 1338.46L1030.15 1338.46M914.154 1414.96H1030.15M914.154 1363.96H1030.15M893.065 1306.31V1422.03M816.687 1306.31V1422.03M867.606 1306.31V1422.03M791.227 1306.31V1422.03M842.146 1306.31V1422.03M1023.15 1435.96L1023.15 1552.96M946.654 1435.96L946.654 1552.96M997.654 1435.96L997.654 1552.96M921.154 1435.96L921.154 1552.96M972.154 1435.96L972.154 1552.96M785.154 1182.54H900.879M785.154 1258.92H900.879M785.154 1208H900.879M785.154 1284.38H900.879M785.154 1233.46H900.879M914.154 1051.96H1030.15M914.154 1128.46H1030.15M914.154 1077.46L1030.15 1077.46M914.154 1153.96H1030.15M914.154 1102.96H1030.15M893.065 1045.31L893.065 1161.03M816.687 1045.31V1161.03M867.606 1045.31V1161.03M791.227 1045.31V1161.03M842.146 1045.31V1161.03M1023.15 1174.96L1023.15 1291.96M946.654 1174.96L946.654 1291.96M997.654 1174.96V1291.96M921.154 1174.96L921.154 1291.96M972.154 1174.96L972.154 1291.96M785.154 921.544H900.879M785.154 997.922H900.879M785.154 947.003H900.879M785.154 1023.38H900.879M785.154 972.463H900.879M914.154 790.962H1030.15M914.154 867.462L1030.15 867.462M914.154 816.462H1030.15M914.154 892.962H1030.15M914.154 841.962L1030.15 841.962M893.065 784.31V900.035M816.687 784.31V900.035M867.606 784.31V900.035M791.227 784.31V900.035M842.146 784.31V900.035M1023.15 913.962L1023.15 1030.96M946.654 913.962V1030.96M997.654 913.962L997.654 1030.96M921.154 913.962V1030.96M972.154 913.962L972.154 1030.96M785.154 660.544H900.879M785.154 736.922H900.879M785.154 686.003H900.879M785.154 762.382H900.879M785.154 711.463H900.879M914.154 529.962L1030.15 529.962M914.154 606.462H1030.15M914.154 555.462L1030.15 555.462M914.154 631.962L1030.15 631.962M914.154 580.962H1030.15M893.065 523.31L893.065 639.035M816.687 523.31V639.035M867.606 523.31L867.606 639.035M791.227 523.31V639.035M842.146 523.31L842.146 639.035M1023.15 652.962L1023.15 769.962M946.654 652.962L946.654 769.962M997.654 652.962V769.962M921.154 652.962L921.154 769.962M972.154 652.962L972.154 769.962M785.154 399.544L900.879 399.544M785.154 475.922L900.879 475.922M785.154 425.003L900.879 425.003M785.154 501.382L900.879 501.382M785.154 450.463L900.879 450.463M914.154 268.962L1030.15 268.962M914.154 345.462H1030.15M914.154 294.462H1030.15M914.154 370.962H1030.15M914.154 319.962L1030.15 319.962M893.065 262.31V378.035M816.687 262.31V378.035M867.606 262.31V378.035M791.227 262.31V378.035M842.146 262.31V378.035M1023.15 391.962L1023.15 508.962M946.654 391.962V508.962M997.654 391.962L997.654 508.962M921.154 391.962V508.962M972.154 391.962L972.154 508.962M785.154 138.544L900.879 138.544M785.154 214.922L900.879 214.922M785.154 164.003L900.879 164.003M785.154 240.382L900.879 240.382M785.154 189.463L900.879 189.463M914.154 7.96238L1030.15 7.96234M914.154 84.4624H1030.15M914.154 33.4624H1030.15M914.154 109.962L1030.15 109.962M914.154 58.9624L1030.15 58.9624M893.065 1.30974L893.065 117.035M816.687 1.30982V117.035M867.606 1.30982V117.035M791.227 1.30982V117.035M842.146 1.30974L842.146 117.035M1023.15 130.962L1023.15 247.962M946.654 130.962V247.962M997.654 130.962L997.654 247.962M921.154 130.962L921.154 247.962M972.154 130.962L972.154 247.962M1046.15 1965.54H1161.88M1046.15 2041.92L1161.88 2041.92M1046.15 1991L1161.88 1991M1046.15 2067.38H1161.88M1046.15 2016.46H1161.88M1175.15 1834.96H1291.15M1175.15 1911.46H1291.15M1175.15 1860.46H1291.15M1175.15 1936.96H1291.15M1175.15 1885.96L1291.15 1885.96M1154.07 1828.31V1944.03M1077.69 1828.31V1944.03M1128.61 1828.31V1944.03M1052.23 1828.31V1944.03M1103.15 1828.31V1944.03M1284.15 1957.96V2074.96M1207.65 1957.96L1207.65 2074.96M1258.65 1957.96L1258.65 2074.96M1182.15 1957.96L1182.15 2074.96M1233.15 1957.96V2074.96M1046.15 1704.54L1161.88 1704.54M1046.15 1780.92H1161.88M1046.15 1730L1161.88 1730M1046.15 1806.38L1161.88 1806.38M1046.15 1755.46H1161.88M1175.15 1573.96H1291.15M1175.15 1650.46L1291.15 1650.46M1175.15 1599.46L1291.15 1599.46M1175.15 1675.96H1291.15M1175.15 1624.96H1291.15M1154.07 1567.31V1683.03M1077.69 1567.31V1683.03M1128.61 1567.31V1683.03M1052.23 1567.31V1683.03M1103.15 1567.31V1683.03M1284.15 1696.96V1813.96M1207.65 1696.96L1207.65 1813.96M1258.65 1696.96L1258.65 1813.96M1182.15 1696.96L1182.15 1813.96M1233.15 1696.96V1813.96M1046.15 1443.54H1161.88M1046.15 1519.92H1161.88M1046.15 1469H1161.88M1046.15 1545.38H1161.88M1046.15 1494.46H1161.88M1175.15 1312.96H1291.15M1175.15 1389.46H1291.15M1175.15 1338.46H1291.15M1175.15 1414.96H1291.15M1175.15 1363.96H1291.15M1154.07 1306.31L1154.07 1422.03M1077.69 1306.31V1422.03M1128.61 1306.31V1422.03M1052.23 1306.31V1422.03M1103.15 1306.31V1422.03M1284.15 1435.96V1552.96M1207.65 1435.96L1207.65 1552.96M1258.65 1435.96L1258.65 1552.96M1182.15 1435.96L1182.15 1552.96M1233.15 1435.96V1552.96M1046.15 1182.54H1161.88M1046.15 1258.92H1161.88M1046.15 1208H1161.88M1046.15 1284.38H1161.88M1046.15 1233.46H1161.88M1175.15 1051.96H1291.15M1175.15 1128.46L1291.15 1128.46M1175.15 1077.46H1291.15M1175.15 1153.96H1291.15M1175.15 1102.96H1291.15M1154.07 1045.31V1161.03M1077.69 1045.31V1161.03M1128.61 1045.31V1161.03M1052.23 1045.31V1161.03M1103.15 1045.31V1161.03M1284.15 1174.96V1291.96M1207.65 1174.96L1207.65 1291.96M1258.65 1174.96L1258.65 1291.96M1182.15 1174.96V1291.96M1233.15 1174.96V1291.96M1046.15 921.544H1161.88M1046.15 997.922H1161.88M1046.15 947.003H1161.88M1046.15 1023.38H1161.88M1046.15 972.463H1161.88M1175.15 790.962L1291.15 790.962M1175.15 867.462H1291.15M1175.15 816.462L1291.15 816.462M1175.15 892.962L1291.15 892.962M1175.15 841.962H1291.15M1154.07 784.31V900.035M1077.69 784.31V900.035M1128.61 784.31V900.035M1052.23 784.31V900.035M1103.15 784.31V900.035M1284.15 913.962V1030.96M1207.65 913.962L1207.65 1030.96M1258.65 913.962V1030.96M1182.15 913.962L1182.15 1030.96M1233.15 913.962V1030.96M1046.15 660.544H1161.88M1046.15 736.922H1161.88M1046.15 686.003H1161.88M1046.15 762.382H1161.88M1046.15 711.463H1161.88M1175.15 529.962H1291.15M1175.15 606.462L1291.15 606.462M1175.15 555.462H1291.15M1175.15 631.962H1291.15M1175.15 580.962L1291.15 580.962M1154.07 523.31V639.035M1077.69 523.31V639.035M1128.61 523.31V639.035M1052.23 523.31V639.035M1103.15 523.31V639.035M1284.15 652.962V769.962M1207.65 652.962V769.962M1258.65 652.962L1258.65 769.962M1182.15 652.962V769.962M1233.15 652.962V769.962M1046.15 399.544H1161.88M1046.15 475.922H1161.88M1046.15 425.003H1161.88M1046.15 501.382H1161.88M1046.15 450.463H1161.88M1175.15 268.962H1291.15M1175.15 345.462H1291.15M1175.15 294.462L1291.15 294.462M1175.15 370.962L1291.15 370.962M1175.15 319.962H1291.15M1154.07 262.31L1154.07 378.035M1077.69 262.31V378.035M1128.61 262.31L1128.61 378.035M1052.23 262.31V378.035M1103.15 262.31L1103.15 378.035M1284.15 391.962L1284.15 508.962M1207.65 391.962L1207.65 508.962M1258.65 391.962L1258.65 508.962M1182.15 391.962V508.962M1233.15 391.962V508.962M1046.15 138.544L1161.88 138.544M1046.15 214.922L1161.88 214.922M1046.15 164.003L1161.88 164.003M1046.15 240.382L1161.88 240.382M1046.15 189.463L1161.88 189.463M1175.15 7.96234L1291.15 7.96247M1175.15 84.4624H1291.15M1175.15 33.4623H1291.15M1175.15 109.962H1291.15M1175.15 58.9624L1291.15 58.9623M1154.07 1.30987V117.035M1077.69 1.30978V117.035M1128.61 1.30978V117.035M1052.23 1.30987V117.035M1103.15 1.30987V117.035M1284.15 130.962V247.962M1207.65 130.962L1207.65 247.962M1258.65 130.962V247.962M1182.15 130.962L1182.15 247.962M1233.15 130.962L1233.15 247.962M1307.15 1965.54H1422.88M1307.15 2041.92H1422.88M1307.15 1991H1422.88M1307.15 2067.38H1422.88M1307.15 2016.46H1422.88M1436.15 1834.96H1552.15M1436.15 1911.46H1552.15M1436.15 1860.46L1552.15 1860.46M1436.15 1936.96L1552.15 1936.96M1436.15 1885.96H1552.15M1415.07 1828.31V1944.03M1338.69 1828.31V1944.03M1389.61 1828.31V1944.03M1313.23 1828.31V1944.03M1364.15 1828.31V1944.03M1545.15 1957.96V2074.96M1468.65 1957.96V2074.96M1519.65 1957.96L1519.65 2074.96M1443.15 1957.96L1443.15 2074.96M1494.15 1957.96V2074.96M1307.15 1704.54H1422.88M1307.15 1780.92L1422.88 1780.92M1307.15 1730L1422.88 1730M1307.15 1806.38H1422.88M1307.15 1755.46H1422.88M1436.15 1573.96H1552.15M1436.15 1650.46H1552.15M1436.15 1599.46H1552.15M1436.15 1675.96L1552.15 1675.96M1436.15 1624.96H1552.15M1415.07 1567.31L1415.07 1683.03M1338.69 1567.31V1683.03M1389.61 1567.31V1683.03M1313.23 1567.31V1683.03M1364.15 1567.31V1683.03M1545.15 1696.96V1813.96M1468.65 1696.96L1468.65 1813.96M1519.65 1696.96V1813.96M1443.15 1696.96V1813.96M1494.15 1696.96L1494.15 1813.96M1307.15 1443.54H1422.88M1307.15 1519.92H1422.88M1307.15 1469H1422.88M1307.15 1545.38L1422.88 1545.38M1307.15 1494.46H1422.88M1436.15 1312.96H1552.15M1436.15 1389.46L1552.15 1389.46M1436.15 1338.46H1552.15M1436.15 1414.96H1552.15M1436.15 1363.96H1552.15M1415.07 1306.31V1422.03M1338.69 1306.31V1422.03M1389.61 1306.31V1422.03M1313.23 1306.31V1422.03M1364.15 1306.31V1422.03M1545.15 1435.96V1552.96M1468.65 1435.96L1468.65 1552.96M1519.65 1435.96L1519.65 1552.96M1443.15 1435.96V1552.96M1494.15 1435.96V1552.96M1307.15 1182.54H1422.88M1307.15 1258.92H1422.88M1307.15 1208H1422.88M1307.15 1284.38H1422.88M1307.15 1233.46H1422.88M1436.15 1051.96H1552.15M1436.15 1128.46H1552.15M1436.15 1077.46H1552.15M1436.15 1153.96H1552.15M1436.15 1102.96H1552.15M1415.07 1045.31V1161.03M1338.69 1045.31V1161.03M1389.61 1045.31V1161.03M1313.23 1045.31V1161.03M1364.15 1045.31V1161.03M1545.15 1174.96V1291.96M1468.65 1174.96L1468.65 1291.96M1519.65 1174.96L1519.65 1291.96M1443.15 1174.96L1443.15 1291.96M1494.15 1174.96V1291.96M1307.15 921.544H1422.88M1307.15 997.922H1422.88M1307.15 947.003H1422.88M1307.15 1023.38H1422.88M1307.15 972.463H1422.88M1436.15 790.962H1552.15M1436.15 867.462L1552.15 867.462M1436.15 816.462H1552.15M1436.15 892.962H1552.15M1436.15 841.962L1552.15 841.962M1415.07 784.31V900.035M1338.69 784.31V900.035M1389.61 784.31V900.035M1313.23 784.31V900.035M1364.15 784.31V900.035M1545.15 913.962V1030.96M1468.65 913.962L1468.65 1030.96M1519.65 913.962L1519.65 1030.96M1443.15 913.962V1030.96M1494.15 913.962V1030.96M1307.15 660.544H1422.88M1307.15 736.922H1422.88M1307.15 686.003H1422.88M1307.15 762.382H1422.88M1307.15 711.463H1422.88M1436.15 529.962H1552.15M1436.15 606.462H1552.15M1436.15 555.462L1552.15 555.462M1436.15 631.962L1552.15 631.962M1436.15 580.962H1552.15M1415.07 523.31L1415.07 639.035M1338.69 523.31V639.035M1389.61 523.31V639.035M1313.23 523.31V639.035M1364.15 523.31L1364.15 639.035M1545.15 652.962L1545.15 769.962M1468.65 652.962L1468.65 769.962M1519.65 652.962L1519.65 769.962M1443.15 652.962V769.962M1494.15 652.962V769.962M1307.15 399.544H1422.88M1307.15 475.922H1422.88M1307.15 425.003H1422.88M1307.15 501.382H1422.88M1307.15 450.463H1422.88M1436.15 268.962L1552.15 268.962M1436.15 345.462L1552.15 345.462M1436.15 294.462H1552.15M1436.15 370.962H1552.15M1436.15 319.962H1552.15M1415.07 262.31V378.035M1338.69 262.31V378.035M1389.61 262.31V378.035M1313.23 262.31V378.035M1364.15 262.31V378.035M1545.15 391.962V508.962M1468.65 391.962L1468.65 508.962M1519.65 391.962V508.962M1443.15 391.962L1443.15 508.962M1494.15 391.962L1494.15 508.962M1307.15 138.544H1422.88M1307.15 214.922H1422.88M1307.15 164.003H1422.88M1307.15 240.382H1422.88M1307.15 189.463H1422.88M1436.15 7.96247H1552.15M1436.15 84.4623L1552.15 84.4625M1436.15 33.4625L1552.15 33.4624M1436.15 109.962H1552.15M1436.15 58.9623L1552.15 58.9625M1415.07 1.30982L1415.07 117.035M1338.69 1.30974V117.035M1389.61 1.30974V117.035M1313.23 1.30982V117.035M1364.15 1.30982L1364.15 117.035M1545.15 130.962V247.962M1468.65 130.962V247.962M1519.65 130.962V247.962M1443.15 130.962L1443.15 247.962M1494.15 130.962V247.962M1568.15 1965.54H1683.88M1568.15 2041.92H1683.88M1568.15 1991H1683.88M1568.15 2067.38L1683.88 2067.38M1568.15 2016.46H1683.88M1697.15 1834.96H1813.15M1697.15 1911.46H1813.15M1697.15 1860.46H1813.15M1697.15 1936.96H1813.15M1697.15 1885.96L1813.15 1885.96M1676.07 1828.31L1676.07 1944.03M1599.69 1828.31V1944.03M1650.61 1828.31V1944.03M1574.23 1828.31V1944.03M1625.15 1828.31V1944.03M1806.15 1957.96V2074.96M1729.65 1957.96L1729.65 2074.96M1780.65 1957.96V2074.96M1704.15 1957.96V2074.96M1755.15 1957.96V2074.96M1568.15 1704.54H1683.88M1568.15 1780.92H1683.88M1568.15 1730H1683.88M1568.15 1806.38H1683.88M1568.15 1755.46H1683.88M1697.15 1573.96H1813.15M1697.15 1650.46H1813.15M1697.15 1599.46H1813.15M1697.15 1675.96L1813.15 1675.96M1697.15 1624.96H1813.15M1676.07 1567.31V1683.03M1599.69 1567.31V1683.03M1650.61 1567.31V1683.03M1574.23 1567.31V1683.03M1625.15 1567.31V1683.03M1806.15 1696.96V1813.96M1729.65 1696.96V1813.96M1780.65 1696.96L1780.65 1813.96M1704.15 1696.96V1813.96M1755.15 1696.96V1813.96M1568.15 1443.54H1683.88M1568.15 1519.92L1683.88 1519.92M1568.15 1469L1683.88 1469M1568.15 1545.38H1683.88M1568.15 1494.46H1683.88M1697.15 1312.96L1813.15 1312.96M1697.15 1389.46H1813.15M1697.15 1338.46H1813.15M1697.15 1414.96H1813.15M1697.15 1363.96H1813.15M1676.07 1306.31V1422.03M1599.69 1306.31V1422.03M1650.61 1306.31V1422.03M1574.23 1306.31V1422.03M1625.15 1306.31V1422.03M1806.15 1435.96V1552.96M1729.65 1435.96L1729.65 1552.96M1780.65 1435.96V1552.96M1704.15 1435.96V1552.96M1755.15 1435.96L1755.15 1552.96M1568.15 1182.54H1683.88M1568.15 1258.92H1683.88M1568.15 1208H1683.88M1568.15 1284.38L1683.88 1284.38M1568.15 1233.46H1683.88M1697.15 1051.96H1813.15M1697.15 1128.46L1813.15 1128.46M1697.15 1077.46H1813.15M1697.15 1153.96H1813.15M1697.15 1102.96H1813.15M1676.07 1045.31V1161.03M1599.69 1045.31V1161.03M1650.61 1045.31V1161.03M1574.23 1045.31V1161.03M1625.15 1045.31V1161.03M1806.15 1174.96V1291.96M1729.65 1174.96L1729.65 1291.96M1780.65 1174.96L1780.65 1291.96M1704.15 1174.96V1291.96M1755.15 1174.96V1291.96M1568.15 921.544H1683.88M1568.15 997.922H1683.88M1568.15 947.003H1683.88M1568.15 1023.38H1683.88M1568.15 972.463H1683.88M1697.15 790.962H1813.15M1697.15 867.462H1813.15M1697.15 816.462H1813.15M1697.15 892.962L1813.15 892.962M1697.15 841.962H1813.15M1676.07 784.31L1676.07 900.035M1599.69 784.31V900.035M1650.61 784.31V900.035M1574.23 784.31V900.035M1625.15 784.31L1625.15 900.035M1806.15 913.962L1806.15 1030.96M1729.65 913.962L1729.65 1030.96M1780.65 913.962V1030.96M1704.15 913.962V1030.96M1755.15 913.962V1030.96M1568.15 660.544H1683.88M1568.15 736.922H1683.88M1568.15 686.003H1683.88M1568.15 762.382H1683.88M1568.15 711.463H1683.88M1697.15 529.962L1813.15 529.962M1697.15 606.462L1813.15 606.462M1697.15 555.462H1813.15M1697.15 631.962H1813.15M1697.15 580.962H1813.15M1676.07 523.31V639.035M1599.69 523.31V639.035M1650.61 523.31V639.035M1574.23 523.31V639.035M1625.15 523.31V639.035M1806.15 652.962V769.962M1729.65 652.962L1729.65 769.962M1780.65 652.962V769.962M1704.15 652.962L1704.15 769.962M1755.15 652.962L1755.15 769.962M1568.15 399.544H1683.88M1568.15 475.922H1683.88M1568.15 425.003H1683.88M1568.15 501.382H1683.88M1568.15 450.463H1683.88M1697.15 268.962H1813.15M1697.15 345.462L1813.15 345.462M1697.15 294.462L1813.15 294.462M1697.15 370.962H1813.15M1697.15 319.962L1813.15 319.962M1676.07 262.31V378.035M1599.69 262.31V378.035M1650.61 262.31V378.035M1574.23 262.31V378.035M1625.15 262.31V378.035M1806.15 391.962V508.962M1729.65 391.962V508.962M1780.65 391.962V508.962M1704.15 391.962L1704.15 508.962M1755.15 391.962V508.962M1568.15 138.544H1683.88M1568.15 214.922H1683.88M1568.15 164.003H1683.88M1568.15 240.382H1683.88M1568.15 189.463H1683.88M1697.15 7.96238H1813.15M1697.15 84.4625L1813.15 84.4624M1697.15 33.4624H1813.15M1697.15 109.962H1813.15M1697.15 58.9625H1813.15M1676.07 1.30978V117.035M1599.69 1.30987V117.035M1650.61 1.30987V117.035M1574.23 1.30978V117.035M1625.15 1.30978V117.035M1806.15 130.962L1806.15 247.962M1729.65 130.962V247.962M1780.65 130.962V247.962M1704.15 130.962V247.962M1755.15 130.962V247.962M1829.15 1965.54H1944.88M1829.15 2041.92H1944.88M1829.15 1991H1944.88M1829.15 2067.38H1944.88M1829.15 2016.46H1944.88M1958.15 1834.96L2074.15 1834.96M1958.15 1911.46H2074.15M1958.15 1860.46H2074.15M1958.15 1936.96H2074.15M1958.15 1885.96L2074.15 1885.96M1937.07 1828.31V1944.03M1860.69 1828.31V1944.03M1911.61 1828.31V1944.03M1835.23 1828.31V1944.03M1886.15 1828.31V1944.03M2067.15 1957.96L2067.15 2074.96M1990.65 1957.96V2074.96M2041.65 1957.96L2041.65 2074.96M1965.15 1957.96V2074.96M2016.15 1957.96V2074.96M1829.15 1704.54H1944.88M1829.15 1780.92H1944.88M1829.15 1730H1944.88M1829.15 1806.38L1944.88 1806.38M1829.15 1755.46H1944.88M1958.15 1573.96H2074.15M1958.15 1650.46H2074.15M1958.15 1599.46H2074.15M1958.15 1675.96H2074.15M1958.15 1624.96L2074.15 1624.96M1937.07 1567.31V1683.03M1860.69 1567.31V1683.03M1911.61 1567.31V1683.03M1835.23 1567.31V1683.03M1886.15 1567.31V1683.03M2067.15 1696.96V1813.96M1990.65 1696.96L1990.65 1813.96M2041.65 1696.96V1813.96M1965.15 1696.96V1813.96M2016.15 1696.96V1813.96M1829.15 1443.54H1944.88M1829.15 1519.92H1944.88M1829.15 1469H1944.88M1829.15 1545.38H1944.88M1829.15 1494.46H1944.88M1958.15 1312.96H2074.15M1958.15 1389.46H2074.15M1958.15 1338.46H2074.15M1958.15 1414.96L2074.15 1414.96M1958.15 1363.96H2074.15M1937.07 1306.31V1422.03M1860.69 1306.31V1422.03M1911.61 1306.31V1422.03M1835.23 1306.31V1422.03M1886.15 1306.31V1422.03M2067.15 1435.96V1552.96M1990.65 1435.96V1552.96M2041.65 1435.96L2041.65 1552.96M1965.15 1435.96V1552.96M2016.15 1435.96V1552.96M1829.15 1182.54H1944.88M1829.15 1258.92L1944.88 1258.92M1829.15 1208L1944.88 1208M1829.15 1284.38H1944.88M1829.15 1233.46H1944.88M1958.15 1051.96H2074.15M1958.15 1128.46H2074.15M1958.15 1077.46H2074.15M1958.15 1153.96H2074.15M1958.15 1102.96H2074.15M1937.07 1045.31L1937.07 1161.03M1860.69 1045.31V1161.03M1911.61 1045.31V1161.03M1835.23 1045.31V1161.03M1886.15 1045.31L1886.15 1161.03M2067.15 1174.96L2067.15 1291.96M1990.65 1174.96L1990.65 1291.96M2041.65 1174.96L2041.65 1291.96M1965.15 1174.96V1291.96M2016.15 1174.96L2016.15 1291.96M1829.15 921.544L1944.88 921.544M1829.15 997.922H1944.88M1829.15 947.003L1944.88 947.003M1829.15 1023.38L1944.88 1023.38M1829.15 972.463H1944.88M1958.15 790.962L2074.15 790.962M1958.15 867.462L2074.15 867.462M1958.15 816.462H2074.15M1958.15 892.962H2074.15M1958.15 841.962L2074.15 841.962M1937.07 784.31V900.035M1860.69 784.31V900.035M1911.61 784.31V900.035M1835.23 784.31V900.035M1886.15 784.31V900.035M2067.15 913.962L2067.15 1030.96M1990.65 913.962L1990.65 1030.96M2041.65 913.962L2041.65 1030.96M1965.15 913.962L1965.15 1030.96M2016.15 913.963V1030.96M1829.15 660.544H1944.88M1829.15 736.922H1944.88M1829.15 686.003H1944.88M1829.15 762.382H1944.88M1829.15 711.463H1944.88M1958.15 529.962H2074.15M1958.15 606.462L2074.15 606.462M1958.15 555.462H2074.15M1958.15 631.962H2074.15M1958.15 580.962L2074.15 580.962M1937.07 523.31V639.035M1860.69 523.31V639.035M1911.61 523.31V639.035M1835.23 523.31V639.035M1886.15 523.31V639.035M2067.15 652.962V769.962M1990.65 652.962V769.962M2041.65 652.962L2041.65 769.962M1965.15 652.962L1965.15 769.962M2016.15 652.962V769.962M1829.15 399.544H1944.88M1829.15 475.922H1944.88M1829.15 425.003H1944.88M1829.15 501.382H1944.88M1829.15 450.463H1944.88M1958.15 268.962H2074.15M1958.15 345.462L2074.15 345.462M1958.15 294.462H2074.15M1958.15 370.962H2074.15M1958.15 319.962H2074.15M1937.07 262.31V378.035M1860.69 262.31V378.035M1911.61 262.31V378.035M1835.23 262.31V378.035M1886.15 262.31V378.035M2067.15 391.962L2067.15 508.962M1990.65 391.962L1990.65 508.962M2041.65 391.962V508.962M1965.15 391.962V508.962M2016.15 391.962V508.962M1829.15 138.544H1944.88M1829.15 214.922H1944.88M1829.15 164.003H1944.88M1829.15 240.382H1944.88M1829.15 189.463H1944.88M1958.15 7.96238H2074.15M1958.15 84.4624H2074.15M1958.15 33.4624L2074.15 33.4623M1958.15 109.962H2074.15M1958.15 58.9624H2074.15M1937.07 1.30969V117.035M1860.69 1.30978V117.035M1911.61 1.30978V117.035M1835.23 1.30969V117.035M1886.15 1.30969V117.035M2067.15 130.962L2067.15 247.962M1990.65 130.962V247.962M2041.65 130.962L2041.65 247.962M1965.15 130.962V247.962M2016.15 130.962L2016.15 247.962" stroke="#CE401D" stroke-width="15"/>
</svg>
