<svg width="800" height="800" viewBox="0 0 800 800" fill="none" xmlns="http://www.w3.org/2000/svg">
<path d="M222.25 254.562C218.687 292.562 216.187 359.812 238.625 388.437C238.625 388.437 228.062 314.562 322.75 221.875C360.875 184.562 369.687 133.812 356.375 95.7499C348.812 74.1874 335 56.3749 323 43.9374C316 36.6249 321.375 24.5624 331.562 24.9999C393.187 27.7499 493.062 44.8748 535.5 151.375C554.125 198.125 555.5 246.437 546.625 295.562C541 326.937 521 396.687 566.625 405.25C599.187 411.375 614.937 385.5 622 366.875C624.937 359.125 635.125 357.187 640.625 363.375C695.625 425.937 700.312 499.625 688.937 563.062C666.937 685.687 542.75 774.937 419.375 774.937C265.25 774.937 142.562 686.75 110.75 527.125C97.9374 462.687 104.437 335.187 203.812 245.187C211.187 238.437 223.25 244.437 222.25 254.562Z" fill="#808080"/>
<path d="M475.688 483.875C418.875 410.75 444.313 327.312 458.25 294.062C460.125 289.687 455.125 285.562 451.188 288.25C426.75 304.875 376.688 344 353.375 399.062C321.813 473.5 324.063 509.937 342.75 554.437C354 581.25 340.938 586.937 334.375 587.937C328 588.937 322.125 584.687 317.438 580.25C303.953 567.304 294.343 550.855 289.688 532.75C288.688 528.875 283.625 527.812 281.313 531C263.813 555.187 254.75 594 254.313 621.437C252.938 706.25 323 775 407.75 775C514.563 775 592.375 656.875 531 558.125C513.188 529.375 496.438 510.562 475.688 483.875Z" fill="#808080"/>
</svg>
