<svg width="138" height="139" viewBox="0 0 138 139" fill="none" xmlns="http://www.w3.org/2000/svg">
<mask id="mask0_114_30" style="mask-type:luminance" maskUnits="userSpaceOnUse" x="0" y="0" width="138" height="139">
<path d="M138 0.36499H0V138.365H138V0.36499Z" fill="white"/>
</mask>
<g mask="url(#mask0_114_30)">
<path d="M138 41.9086C138.004 39.5176 137.432 37.1843 136.4 35.0108C135.498 33.1036 134.247 31.3109 132.711 29.6301C130.025 26.6893 126.473 24.077 122.227 21.7706C115.856 18.3155 107.907 15.5433 98.8676 13.6162C89.8283 11.6907 79.7036 10.6174 69 10.6174C59.6842 10.6174 50.7999 11.4319 42.6921 12.9133C30.5287 15.1423 20.1167 18.8384 12.548 23.6708C8.76219 26.0925 5.67714 28.807 3.48019 31.8524C2.38373 33.375 1.51369 34.9838 0.916945 36.6703C0.319934 38.3543 0 40.1162 0 41.9086C0 42.1423 0.0107812 42.376 0.0215625 42.6078L0.00727734 42.6005C0.00727734 44.2166 0.129645 46.1276 0.399176 48.3049C0.866543 52.1107 1.77621 56.7215 3.26106 61.8003C5.49008 69.4154 9.01366 78.0768 14.3242 86.5387C19.4044 94.6322 26.1351 102.538 34.9188 109.095V118.65C34.9188 119.622 35.404 120.523 36.2166 121.055C36.4107 121.181 39.1578 122.95 44.5867 124.683C50.0158 126.418 58.1236 128.113 68.9997 128.113C79.8796 128.113 87.9871 126.418 93.4163 124.683C98.842 122.95 101.592 121.181 101.787 121.055C102.599 120.523 103.085 119.622 103.085 118.65V109.1C109.682 104.174 115.122 98.4846 119.573 92.5288C126.649 83.0547 131.233 72.9193 134.07 64.0045C135.487 59.5443 136.464 55.3879 137.09 51.7568C137.716 48.1219 137.996 45.0206 137.996 42.6008L137.985 42.6027C137.996 42.3722 138 42.1404 138 41.9086ZM97.3355 116.954C96.1348 117.555 94.1033 118.455 91.2053 119.35C86.312 120.862 78.963 122.362 69 122.363C58.7206 122.362 51.2241 120.765 46.3381 119.205C43.8932 118.426 42.1062 117.653 40.9485 117.093C40.8477 117.044 40.7577 116.999 40.668 116.954V109.804C45.4246 111.448 54.7693 113.828 69 113.826C83.2307 113.828 92.5789 111.448 97.3355 109.804V116.954ZM129.224 60.1877C127.124 67.3623 123.787 75.551 118.807 83.4825C113.828 91.4137 107.212 99.0846 98.5366 105.307C98.4323 105.382 98.3352 105.465 98.2417 105.55C95.1567 106.842 85.6074 110.166 69 110.168C58.5767 110.168 50.9331 108.854 45.9208 107.56C43.4147 106.912 41.5668 106.269 40.3623 105.796C40.1359 105.706 39.9416 105.627 39.7583 105.55C39.6683 105.465 39.5712 105.382 39.4672 105.307C32.8588 100.566 27.4439 94.9861 23.036 89.086C16.4242 80.2411 12.0844 70.6722 9.41284 62.2623C8.79454 60.3155 8.26949 58.433 7.82368 56.6372C10.0818 58.6002 12.7496 60.4033 15.7767 62.0502C22.1479 65.5053 30.0937 68.2736 39.1327 70.2027C48.1717 72.1282 58.2999 73.2012 69 73.2012C78.3193 73.2012 87.2036 72.3867 95.3114 70.9053C107.475 68.6763 117.884 64.9802 125.455 60.1462C127.189 59.0387 128.763 57.8687 130.184 56.6334C129.896 57.784 129.579 58.9724 129.224 60.1877ZM30.5937 44.6481C33.7289 46.5772 38.2484 48.7704 43.8355 49.8401L43.8824 49.5919C44.1845 50.5608 44.5225 51.5368 44.8999 52.5185C45.3818 53.7677 45.9281 55.0246 46.5429 56.2757C39.2516 55.0299 32.9917 52.2594 28.4113 49.6566C25.8154 48.1841 23.7589 46.7675 22.3638 45.7268C22.173 45.5866 21.997 45.4535 21.8315 45.3279C22.8633 44.1969 24.2044 43.0735 25.8583 42.0019C26.0346 41.8868 26.2178 41.7755 26.4011 41.6623C27.2068 42.3345 28.6307 43.4401 30.5937 44.6481ZM29.9069 39.7583C33.1499 38.205 37.0511 36.828 41.441 35.717C41.5919 38.6813 41.9911 42.1617 42.8611 45.8756C38.5826 44.8314 35.0482 43.0838 32.5133 41.5254C31.4672 40.882 30.5899 40.2688 29.9069 39.7583ZM92.3921 53.1567C88.6203 55.4237 86.2977 57.6315 85.201 58.8053C84.3813 58.1385 83.601 57.4498 82.8604 56.745C81.7566 55.6933 80.7354 54.6022 79.7899 53.4858C80.872 52.5527 83.414 50.5735 87.5381 48.5439C92.9169 45.8993 100.989 43.1776 112.066 42.5916C112.911 43.1884 113.677 43.7943 114.335 44.4107C114.953 44.9896 115.485 45.5756 115.935 46.1599C105.185 46.9691 97.4722 50.1043 92.3921 53.1567ZM117.639 49.7267C117.711 50.1223 117.765 50.5196 117.765 50.9185C117.761 51.9956 117.495 53.0524 116.931 54.14C115.957 56.0401 114.018 58.0158 111.207 59.8387C108.992 61.2804 106.245 62.6213 103.078 63.8115C101.366 64.2681 99.5975 64.6924 97.7784 65.0789C97.4512 65.1506 97.1094 65.2101 96.7787 65.2783C93.5573 64.1385 90.7097 62.6752 88.182 60.9928C89.2248 59.9284 91.2778 58.0713 94.5136 56.1606C99.3708 53.2952 106.871 50.3091 117.639 49.7267ZM85.4994 45.4643C81.4545 47.4976 78.8406 49.4822 77.539 50.5843C75.9102 48.303 74.5655 45.9856 73.4653 43.7638L73.6055 43.9005L73.6235 43.8824C73.8214 43.6865 75.6801 41.903 79.6244 40.0839C83.4102 38.3381 89.127 36.5584 97.1773 36.1307C99.615 36.7994 101.891 37.5473 103.965 38.367C104.81 38.7015 105.612 39.0467 106.385 39.4009C97.2709 40.5135 90.3533 43.0196 85.4994 45.4643ZM77.4673 37.0492C74.7707 38.3543 72.9767 39.6381 71.9662 40.4631C71.7791 40.01 71.5959 39.5642 71.4304 39.1292C70.4202 36.5083 69.7727 34.2286 69.3738 32.5963C75.4248 32.6341 81.2135 33.096 86.5457 33.9052C82.81 34.7787 79.7972 35.9202 77.4673 37.0492ZM70.7582 46.5322C72.991 50.7961 76.0792 55.3518 80.3327 59.4001C83.1048 62.041 86.3837 64.4606 90.2202 66.4311C86.4055 66.9974 82.4253 67.4128 78.3231 67.6677C74.2063 65.3541 70.8878 62.5642 68.2054 59.5295C63.8838 54.6434 61.1944 49.1172 59.526 44.0511C58.1489 39.8696 57.4765 36.0083 57.1495 33.1103C59.8928 32.8586 62.7188 32.6931 65.6168 32.6268C66.2494 35.4404 67.7127 40.7165 70.7582 46.5322ZM58.2244 50.7622C59.9645 54.5391 62.3051 58.3899 65.4584 61.9566C67.3281 64.0762 69.4959 66.0915 71.9805 67.927C70.9918 67.9467 69.9994 67.9647 69 67.9647C65.9834 67.9647 63.0172 67.8675 60.1084 67.6968C57.5376 65.5843 55.3984 63.2905 53.6222 60.896C50.1347 56.2059 48.017 51.1309 46.755 46.3435C45.644 42.128 45.2017 38.1441 45.0724 34.8884C47.7472 34.3294 50.5624 33.8637 53.5036 33.5006C53.9925 37.8473 55.2008 44.1897 58.2244 50.7622ZM26.599 52.8459C32.0284 55.9272 39.6974 59.2546 48.7757 60.2939C49.3655 61.2321 49.9945 62.1652 50.6775 63.0838C51.7311 64.5021 52.9103 65.8864 54.2046 67.2276C50.5517 66.861 47.0138 66.3702 43.6339 65.7535C39.395 64.9821 35.3967 64.0169 31.6971 62.8951C27.8822 61.2591 24.819 59.3823 22.7301 57.4301C21.5579 56.3353 20.6951 55.2259 20.1308 54.1402C19.5699 53.0527 19.3001 51.9956 19.3001 50.9188C19.3001 50.0757 19.4726 49.245 19.8143 48.4003C21.3172 49.538 23.6185 51.1525 26.599 52.8459ZM131.668 46.5661C131.025 47.9273 130.083 49.3005 128.842 50.656C126.678 53.0343 123.589 55.3499 119.728 57.446C119.44 57.6024 119.142 57.7571 118.847 57.9115C119.361 57.2412 119.814 56.5471 120.188 55.8261C120.987 54.2909 121.432 52.6263 121.429 50.9185C121.432 49.2124 120.987 47.5478 120.188 46.0109C118.782 43.318 116.359 40.9844 113.202 38.926C109.247 36.359 104.091 34.2178 98.0617 32.5675L98.0547 32.4165C97.8964 32.4219 97.742 32.4327 97.5838 32.44C96.534 32.1578 95.4588 31.8899 94.3551 31.64C86.722 29.9069 77.9131 28.924 68.5326 28.924C54.2337 28.9275 41.283 31.198 31.7516 34.955C26.9839 36.8428 23.0576 39.095 20.2281 41.7307C18.8149 43.0504 17.6753 44.474 16.8772 46.0112C16.0789 47.548 15.6331 49.2127 15.6331 50.9188C15.6331 52.6265 16.0789 54.2912 16.8772 55.8264C17.1001 56.2579 17.3589 56.6768 17.6357 57.0884C16.8484 56.6461 16.0862 56.1949 15.3671 55.7348C11.9944 53.5812 9.41311 51.2476 7.73016 48.9051C6.88545 47.7348 6.26337 46.5645 5.85341 45.4034C5.44345 44.2403 5.23861 43.0859 5.23861 41.9086C5.23861 40.3426 5.59816 38.8093 6.33533 37.2506C6.97897 35.8916 7.92098 34.52 9.15786 33.1607C11.326 30.7843 14.4143 28.4668 18.2761 26.3726C24.0683 23.2266 31.5791 20.5787 40.2262 18.7394C48.8728 16.8969 58.6524 15.8541 69 15.8541C78.0137 15.8541 86.5923 16.6433 94.3694 18.0635C106.033 20.1901 115.892 23.764 122.637 28.0841C126.009 30.2377 128.591 32.5713 130.273 34.9137C131.115 36.0841 131.737 37.2544 132.15 38.4155C132.56 39.5785 132.765 40.7329 132.765 41.9086C132.761 43.4759 132.402 45.0077 131.668 46.5661Z" fill="#F15937"/>
</g>
</svg>
