<svg width="138" height="139" viewBox="0 0 138 139" fill="none" xmlns="http://www.w3.org/2000/svg">
<g clip-path="url(#clip0_2_337)">
<path d="M114.558 74.4058C113.177 74.8139 112.39 76.261 112.796 77.6399C113.202 79.0169 114.651 79.8042 116.029 79.3981C117.406 78.9919 118.197 77.5448 117.787 76.1658C117.38 74.7869 115.935 73.9996 114.558 74.4058Z" fill="#F15937"/>
<path d="M138 41.9087C138.004 39.5177 137.432 37.1844 136.4 35.0109C135.498 33.1037 134.247 31.311 132.711 29.6302C130.025 26.6894 126.473 24.0771 122.227 21.7707C115.856 18.3156 107.907 15.5434 98.8676 13.6163C89.8283 11.6908 79.7036 10.6175 69 10.6175C59.6842 10.6175 50.7999 11.432 42.6921 12.9134C30.5287 15.1424 20.1167 18.8385 12.548 23.6709C8.76219 26.0926 5.67714 28.8071 3.48019 31.8525C2.38373 33.3751 1.51369 34.9839 0.916945 36.6704C0.319934 38.3544 0 40.1163 0 41.9087C0 42.1424 0.0107812 42.3761 0.0215625 42.6079L0.00727734 42.6006C0.00727734 44.2167 0.129645 46.1277 0.399176 48.305C0.866543 52.1108 1.77621 56.7216 3.26106 61.8004C5.49008 69.4155 9.01366 78.0769 14.3242 86.5388C19.4044 94.6323 26.1351 102.538 34.9188 109.095V118.65C34.9188 119.622 35.404 120.523 36.2166 121.055C36.4107 121.181 39.1578 122.95 44.5867 124.683C50.0158 126.418 58.1236 128.113 68.9997 128.113C79.8796 128.113 87.9871 126.418 93.4163 124.683C98.842 122.95 101.592 121.181 101.787 121.055C102.599 120.523 103.085 119.622 103.085 118.65V109.1C109.682 104.174 115.122 98.4847 119.573 92.5289C126.649 83.0548 131.233 72.9194 134.07 64.0046C135.487 59.5444 136.464 55.388 137.09 51.7569C137.716 48.122 137.996 45.0207 137.996 42.6009L137.985 42.6028C137.996 42.3723 138 42.1405 138 41.9087ZM97.3355 116.954C96.1348 117.555 94.1033 118.455 91.2053 119.35C86.312 120.862 78.963 122.362 69 122.363C58.7206 122.362 51.2241 120.765 46.3381 119.205C43.8932 118.426 42.1062 117.653 40.9485 117.093C40.8477 117.044 40.7577 116.999 40.668 116.954V109.804C45.4246 111.448 54.7693 113.828 69 113.826C83.2307 113.828 92.5789 111.448 97.3355 109.804V116.954ZM129.224 60.1878C127.124 67.3624 123.787 75.5511 118.807 83.4826C113.828 91.4138 107.212 99.0847 98.5366 105.307C98.4323 105.382 98.3352 105.465 98.2417 105.55C95.1567 106.842 85.6074 110.166 69 110.168C58.5767 110.168 50.9331 108.854 45.9208 107.56C43.4147 106.912 41.5668 106.269 40.3623 105.796C40.1359 105.706 39.9416 105.627 39.7583 105.55C39.6683 105.465 39.5712 105.382 39.4672 105.307C32.8588 100.566 27.4439 94.9862 23.036 89.0861C16.4242 80.2412 12.0844 70.6723 9.41284 62.2624C8.79454 60.3156 8.26949 58.4331 7.82368 56.6373C10.0818 58.6003 12.7496 60.4034 15.7767 62.0503C22.1479 65.5054 30.0937 68.2737 39.1327 70.2028C48.1717 72.1283 58.2999 73.2013 69 73.2013C78.3193 73.2013 87.2036 72.3868 95.3114 70.9054C107.475 68.6764 117.884 64.9803 125.455 60.1463C127.189 59.0388 128.763 57.8688 130.184 56.6335C129.896 57.7841 129.579 58.9725 129.224 60.1878ZM30.5937 44.6482C33.7289 46.5773 38.2484 48.7705 43.8355 49.8402L43.8824 49.592C44.1845 50.5609 44.5225 51.5369 44.8999 52.5186C45.3818 53.7678 45.9281 55.0247 46.5429 56.2758C39.2516 55.03 32.9917 52.2595 28.4113 49.6567C25.8154 48.1842 23.7589 46.7676 22.3638 45.7269C22.173 45.5867 21.997 45.4536 21.8315 45.328C22.8633 44.197 24.2044 43.0736 25.8583 42.002C26.0346 41.8869 26.2178 41.7756 26.4011 41.6624C27.2068 42.3346 28.6307 43.4402 30.5937 44.6482ZM29.9069 39.7584C33.1499 38.2051 37.0511 36.8281 41.441 35.7171C41.5919 38.6814 41.9911 42.1618 42.8611 45.8757C38.5826 44.8315 35.0482 43.0839 32.5133 41.5255C31.4672 40.8821 30.5899 40.2689 29.9069 39.7584ZM92.3921 53.1568C88.6203 55.4238 86.2977 57.6316 85.201 58.8054C84.3813 58.1386 83.601 57.4499 82.8604 56.7451C81.7566 55.6934 80.7354 54.6023 79.7899 53.4859C80.872 52.5528 83.414 50.5736 87.5381 48.544C92.9169 45.8994 100.989 43.1777 112.066 42.5917C112.911 43.1885 113.677 43.7944 114.335 44.4108C114.953 44.9897 115.485 45.5757 115.935 46.16C105.185 46.9692 97.4722 50.1044 92.3921 53.1568ZM117.639 49.7268C117.711 50.1224 117.765 50.5197 117.765 50.9186C117.761 51.9957 117.495 53.0525 116.931 54.1401C115.957 56.0402 114.018 58.0159 111.207 59.8388C108.992 61.2805 106.245 62.6214 103.078 63.8116C101.366 64.2682 99.5975 64.6925 97.7784 65.079C97.4512 65.1507 97.1094 65.2102 96.7787 65.2784C93.5573 64.1386 90.7097 62.6753 88.182 60.9929C89.2248 59.9285 91.2778 58.0714 94.5136 56.1607C99.3708 53.2953 106.871 50.3092 117.639 49.7268ZM85.4994 45.4644C81.4545 47.4977 78.8406 49.4823 77.539 50.5844C75.9102 48.3031 74.5655 45.9857 73.4653 43.7639L73.6055 43.9006L73.6235 43.8825C73.8214 43.6866 75.6801 41.9031 79.6244 40.084C83.4102 38.3382 89.127 36.5585 97.1773 36.1308C99.615 36.7995 101.891 37.5474 103.965 38.3671C104.81 38.7016 105.612 39.0468 106.385 39.401C97.2709 40.5136 90.3533 43.0197 85.4994 45.4644ZM77.4673 37.0493C74.7707 38.3544 72.9767 39.6382 71.9662 40.4632C71.7791 40.0101 71.5959 39.5643 71.4304 39.1293C70.4202 36.5084 69.7727 34.2287 69.3738 32.5964C75.4248 32.6342 81.2135 33.0961 86.5457 33.9053C82.81 34.7788 79.7972 35.9203 77.4673 37.0493ZM70.7582 46.5323C72.991 50.7962 76.0792 55.3519 80.3327 59.4002C83.1048 62.0411 86.3837 64.4607 90.2202 66.4312C86.4055 66.9975 82.4253 67.4129 78.3231 67.6678C74.2063 65.3542 70.8878 62.5643 68.2054 59.5296C63.8838 54.6435 61.1944 49.1173 59.526 44.0512C58.1489 39.8697 57.4765 36.0084 57.1495 33.1104C59.8928 32.8587 62.7188 32.6932 65.6168 32.6269C66.2494 35.4405 67.7127 40.7166 70.7582 46.5323ZM58.2244 50.7623C59.9645 54.5392 62.3051 58.39 65.4584 61.9567C67.3281 64.0763 69.4959 66.0916 71.9805 67.9271C70.9918 67.9468 69.9994 67.9648 69 67.9648C65.9834 67.9648 63.0172 67.8676 60.1084 67.6969C57.5376 65.5844 55.3984 63.2906 53.6222 60.8961C50.1347 56.206 48.017 51.131 46.755 46.3436C45.644 42.1281 45.2017 38.1442 45.0724 34.8885C47.7472 34.3295 50.5624 33.8638 53.5036 33.5007C53.9925 37.8474 55.2008 44.1898 58.2244 50.7623ZM26.599 52.846C32.0284 55.9273 39.6974 59.2547 48.7757 60.294C49.3655 61.2322 49.9945 62.1653 50.6775 63.0839C51.7311 64.5022 52.9103 65.8865 54.2046 67.2277C50.5517 66.8611 47.0138 66.3703 43.6339 65.7536C39.395 64.9822 35.3967 64.017 31.6971 62.8952C27.8822 61.2592 24.819 59.3824 22.7301 57.4302C21.5579 56.3354 20.6951 55.226 20.1308 54.1403C19.5699 53.0528 19.3001 51.9957 19.3001 50.9189C19.3001 50.0758 19.4726 49.2451 19.8143 48.4004C21.3172 49.5381 23.6185 51.1526 26.599 52.846ZM131.668 46.5662C131.025 47.9274 130.083 49.3006 128.842 50.6561C126.678 53.0344 123.589 55.35 119.728 57.4461C119.44 57.6025 119.142 57.7572 118.847 57.9116C119.361 57.2413 119.814 56.5472 120.188 55.8262C120.987 54.291 121.432 52.6264 121.429 50.9186C121.432 49.2125 120.987 47.5479 120.188 46.011C118.782 43.3181 116.359 40.9845 113.202 38.9261C109.247 36.3591 104.091 34.2179 98.0617 32.5676L98.0547 32.4166C97.8964 32.422 97.742 32.4328 97.5838 32.4401C96.534 32.1579 95.4588 31.89 94.3551 31.6401C86.722 29.907 77.9131 28.9241 68.5326 28.9241C54.2337 28.9276 41.283 31.1981 31.7516 34.9551C26.9839 36.8429 23.0576 39.0951 20.2281 41.7308C18.8149 43.0505 17.6753 44.4741 16.8772 46.0113C16.0789 47.5481 15.6331 49.2128 15.6331 50.9189C15.6331 52.6266 16.0789 54.2913 16.8772 55.8265C17.1001 56.258 17.3589 56.6769 17.6357 57.0885C16.8484 56.6462 16.0862 56.195 15.3671 55.7349C11.9944 53.5813 9.41311 51.2477 7.73016 48.9052C6.88545 47.7349 6.26337 46.5646 5.85341 45.4035C5.44345 44.2404 5.23861 43.086 5.23861 41.9087C5.23861 40.3427 5.59816 38.8094 6.33533 37.2507C6.97897 35.8917 7.92098 34.5201 9.15786 33.1608C11.326 30.7844 14.4143 28.4669 18.2761 26.3727C24.0683 23.2267 31.5791 20.5788 40.2262 18.7395C48.8728 16.897 58.6524 15.8542 69 15.8542C78.0137 15.8542 86.5923 16.6434 94.3694 18.0636C106.033 20.1902 115.892 23.7641 122.637 28.0842C126.009 30.2378 128.591 32.5714 130.273 34.9138C131.115 36.0842 131.737 37.2545 132.15 38.4156C132.56 39.5786 132.765 40.733 132.765 41.9087C132.761 43.476 132.402 45.0078 131.668 46.5662Z" fill="#F15937"/>
<path d="M104.149 78.4507C102.768 78.8572 101.981 80.304 102.387 81.681C102.797 83.0616 104.242 83.8491 105.619 83.443C107 83.0368 107.788 81.5878 107.378 80.2107C106.971 78.8318 105.526 78.0442 104.149 78.4507Z" fill="#F15937"/>
<path d="M93.1762 80.9298C91.7595 81.1689 90.8032 82.512 91.0439 83.9284C91.2814 85.3466 92.6261 86.3013 94.0427 86.0622C95.4594 85.8232 96.4157 84.4785 96.1747 83.0637C95.9338 81.6452 94.5926 80.6905 93.1762 80.9298Z" fill="#F15937"/>
<path d="M81.9185 82.323C80.4875 82.4435 79.4196 83.7001 79.5417 85.131C79.6603 86.5638 80.9153 87.628 82.3497 87.511C83.7807 87.3924 84.845 86.1342 84.7264 84.7014C84.6078 83.2704 83.3494 82.2044 81.9185 82.323Z" fill="#F15937"/>
<path d="M70.5534 82.8516C69.1152 82.8694 67.9646 84.0488 67.9826 85.4852C67.9972 86.9215 69.1764 88.074 70.6146 88.056C72.0528 88.0398 73.2032 86.8625 73.1854 85.424C73.1671 83.9876 71.9914 82.8373 70.5534 82.8516Z" fill="#F15937"/>
<path d="M36.7628 79.4485C35.3642 79.107 33.9584 79.9628 33.6169 81.3579C33.2754 82.7565 34.1346 84.1621 35.5297 84.5038C36.9248 84.8437 38.3339 83.9879 38.6719 82.5912C39.0137 81.1959 38.1579 79.7881 36.7628 79.4485Z" fill="#F15937"/>
<path d="M47.8627 81.5142C46.4391 81.3198 45.1267 82.3176 44.9362 83.7416C44.7383 85.1652 45.7343 86.4757 47.1617 86.6719C48.5819 86.866 49.8942 85.8701 50.092 84.4445C50.2861 83.0225 49.2867 81.7101 47.8627 81.5142Z" fill="#F15937"/>
<path d="M59.1704 82.5964C57.736 82.5155 56.5061 83.6103 56.4233 85.0448C56.3406 86.4792 57.4373 87.7107 58.8718 87.7935C60.3062 87.8762 61.5396 86.7798 61.6223 85.3434C61.7016 83.9103 60.6048 82.6788 59.1704 82.5964Z" fill="#F15937"/>
<path d="M24.3846 75.098C22.9895 74.7581 21.5837 75.6139 21.2422 77.0106C20.9004 78.4073 21.7564 79.8132 23.1513 80.1566C24.5501 80.4946 25.9557 79.6391 26.2972 78.2437C26.6355 76.8473 25.7832 75.4395 24.3846 75.098Z" fill="#F15937"/>
</g>
<defs>
<clipPath id="clip0_2_337">
<rect width="138" height="138" fill="white" transform="translate(0 0.365051)"/>
</clipPath>
</defs>
</svg>
