<svg width="612" height="583" viewBox="0 0 612 583" fill="none" xmlns="http://www.w3.org/2000/svg">
<path d="M610 220.335C608.603 215.906 605.986 211.961 602.45 208.954C598.91 205.946 594.596 203.999 590 203.335L409.333 177.001L328.333 13.3348C326.026 9.46746 322.756 6.2648 318.843 4.0408C314.926 1.8168 310.503 0.647461 306 0.647461C301.496 0.647461 297.073 1.8168 293.156 4.0408C289.243 6.2648 285.97 9.46746 283.666 13.3348L202.666 177.001L21.9994 203.335C17.4034 203.999 13.0884 205.946 9.55036 208.954C6.01236 211.961 3.39503 215.906 1.99936 220.335C0.509365 224.746 0.281695 229.49 1.34203 234.023C2.40203 238.56 4.70769 242.706 7.99936 246.003L139.333 373.336L108.333 553.336C107.547 557.97 108.066 562.73 109.832 567.086C111.598 571.443 114.541 575.223 118.333 578.003C122.13 580.706 126.608 582.296 131.261 582.593C135.915 582.886 140.558 581.873 144.666 579.67L306 494.67L467.666 579.67C471.243 581.63 475.253 582.663 479.333 582.67C484.576 582.606 489.683 580.983 494 578.003C497.79 575.223 500.733 571.443 502.5 567.086C504.266 562.73 504.786 557.97 504 553.336L472.666 373.336L603.666 246.003C607.016 242.743 609.383 238.61 610.503 234.073C611.623 229.536 611.446 224.776 610 220.335Z" fill="#FE633C"/>
</svg>
